<?xml version="1.0" encoding="UTF-8" standalone="no"?>
<!-- Created with Inkscape (http://www.inkscape.org/) -->

<svg
   xmlns:dc="http://purl.org/dc/elements/1.1/"
   xmlns:cc="http://creativecommons.org/ns#"
   xmlns:rdf="http://www.w3.org/1999/02/22-rdf-syntax-ns#"
   xmlns:svg="http://www.w3.org/2000/svg"
   xmlns="http://www.w3.org/2000/svg"
   xmlns:sodipodi="http://sodipodi.sourceforge.net/DTD/sodipodi-0.dtd"
   xmlns:inkscape="http://www.inkscape.org/namespaces/inkscape"
   width="210mm"
   height="297mm"
   viewBox="0 0 744.09448819 1052.3622047"
   id="svg2"
   version="1.1"
   inkscape:version="0.91 r13725"
   sodipodi:docname="drawing.svg"
   inkscape:export-filename="/home/tom/python/heistboys/sprites/items/unusable_items/metal_scraps/1.png"
   inkscape:export-xdpi="16.641138"
   inkscape:export-ydpi="16.641138">
  <defs
     id="defs4" />
  <sodipodi:namedview
     id="base"
     pagecolor="#ffffff"
     bordercolor="#666666"
     borderopacity="1.0"
     inkscape:pageopacity="0.0"
     inkscape:pageshadow="2"
     inkscape:zoom="0.98994949"
     inkscape:cx="231.75575"
     inkscape:cy="481.11165"
     inkscape:document-units="px"
     inkscape:current-layer="layer1"
     showgrid="false"
     inkscape:window-width="1918"
     inkscape:window-height="1060"
     inkscape:window-x="0"
     inkscape:window-y="18"
     inkscape:window-maximized="1" />
  <metadata
     id="metadata7">
    <rdf:RDF>
      <cc:Work
         rdf:about="">
        <dc:format>image/svg+xml</dc:format>
        <dc:type
           rdf:resource="http://purl.org/dc/dcmitype/StillImage" />
        <dc:title></dc:title>
      </cc:Work>
    </rdf:RDF>
  </metadata>
  <g
     inkscape:label="Layer 1"
     inkscape:groupmode="layer"
     id="layer1">
    <path
       style="opacity:1;fill:#28170b"
       id="path3336"
       d="m 271.33129,583.86266 c -0.19803,2.53293 -0.47253,5.06158 -0.57353,7.60053 -0.0451,4.20575 0.47867,8.3542 1.26676,12.47527 0.85288,4.4144 1.88179,8.78757 3.2338,13.07572 1.49222,4.16419 3.18676,8.25706 5.43554,12.0712 2.11159,3.41976 4.73671,6.48939 7.38787,9.49765 2.72055,3.17626 5.84108,5.9562 8.94286,8.74673 2.68753,2.41583 5.36381,4.84856 8.10552,7.20322 1.69925,1.54761 3.453,3.03418 5.19471,4.53354 2.76446,2.27223 5.47716,4.60293 8.13224,7.00185 3.4392,3.09125 6.63943,6.43164 9.69958,9.89468 1.98799,2.39843 3.8569,4.96158 5.0774,7.84924 0.8365,1.97914 1.03296,3.05011 1.58567,5.15338 1.28953,6.0614 1.89511,12.23885 2.19428,18.4202 0.13123,3.36974 0.22475,6.74769 -0.2105,10.09834 -0.25595,1.34105 -0.6723,2.643 -1.06002,3.94959 0,0 -1.32979,0.62975 -1.32979,0.62975 l 0,0 c 0.38857,-1.29926 0.80395,-2.59409 1.06608,-3.92685 0.45913,-3.3481 0.37458,-6.72712 0.26714,-10.09784 -0.27126,-6.17518 -0.88425,-12.34162 -2.17837,-18.39449 -0.5506,-2.07941 -0.75437,-3.16447 -1.58335,-5.12172 -1.21795,-2.87563 -3.08138,-5.42468 -5.05918,-7.81585 -3.05807,-3.45942 -6.25792,-6.79282 -9.6991,-9.87594 -2.65751,-2.39869 -5.38194,-4.71779 -8.15264,-6.98483 -1.74596,-1.49383 -3.50123,-2.97812 -5.19037,-4.53665 -2.73177,-2.36491 -5.40066,-4.80393 -8.09018,-7.21648 -3.10177,-2.79804 -6.22987,-5.57878 -8.95116,-8.76124 -2.65565,-3.01581 -5.29502,-6.08788 -7.40215,-9.52112 -2.25246,-3.82631 -3.94255,-7.93033 -5.44277,-12.10467 -1.35715,-4.29251 -2.40399,-8.66753 -3.23945,-13.09167 -0.79291,-4.12791 -1.34097,-8.27708 -1.3073,-12.4913 0.0899,-2.53712 0.37083,-5.06215 0.53876,-7.59523 0,0 1.34165,-0.66501 1.34165,-0.66501 z"
       inkscape:connector-curvature="0" />
    <path
       style="opacity:1;fill:#28170b"
       id="path3349"
       d="m 335.45038,721.09655 c 1.79125,-0.0417 3.59335,0.1016 5.37922,-0.0631 0.50772,-0.0707 0.70726,-0.0712 1.18547,-0.24026 0.17795,-0.0629 0.66534,-0.34632 0.51833,-0.22794 -0.23335,0.18789 -0.49533,0.35772 -0.78308,0.44112 -0.34617,0.10032 0.56461,-0.44825 0.84098,-0.67958 0.74639,-0.69956 1.32102,-1.54333 1.79034,-2.44584 0.52299,-1.10468 0.96975,-2.2281 1.22833,-3.42384 0.53026,-1.94313 0.36974,-3.98415 0.33586,-5.97602 -0.0851,-2.53611 -0.28059,-5.07405 -0.53002,-7.59981 -0.28074,-2.99873 -0.71297,-5.98434 -1.18913,-8.95801 -0.53754,-2.71566 -0.92127,-5.45705 -1.41189,-8.18074 -0.32436,-1.88216 -0.67934,-3.75845 -1.01197,-5.63945 -0.362,-1.93198 -0.83765,-3.83657 -1.3539,-5.73202 -0.4298,-1.81877 -0.93391,-3.61914 -1.38593,-5.43249 -0.52512,-2.26971 -1.23086,-4.49165 -2.05041,-6.67085 -0.82193,-1.97847 -1.87957,-3.84951 -3.066,-5.62982 -0.94563,-1.5118 -2.01628,-2.93304 -3.18702,-4.27591 -1.00392,-1.28683 -2.0586,-2.53195 -3.10943,-3.78044 -1.36392,-1.62925 -2.89123,-3.1086 -4.44187,-4.55752 -1.50407,-1.3852 -2.96179,-2.81941 -4.42023,-4.25222 -1.19442,-1.17927 -2.35502,-2.38802 -3.64035,-3.46895 -1.09804,-1.02887 -2.27094,-1.96762 -3.42342,-2.93538 -2.0634,-1.94522 -4.00213,-4.0152 -5.89932,-6.12094 -2.20869,-2.38295 -4.33692,-4.82803 -6.41004,-7.32813 -1.61177,-2.03124 -3.18691,-4.09491 -4.7057,-6.19705 -1.64235,-2.27468 -3.05425,-4.67951 -4.33499,-7.17164 -1.84822,-3.56608 -3.2679,-7.31772 -4.66963,-11.07321 -1.19928,-3.54391 -1.87961,-7.24711 -2.45112,-10.93768 -0.34703,-2.63097 -0.73231,-5.25414 -0.93308,-7.90131 -0.18143,-2.03278 -0.51312,-4.04559 -0.78362,-6.06693 -0.22076,-1.96637 -0.43293,-3.97898 -1.21653,-5.81238 -0.90798,-1.49496 -2.29971,-0.95199 -3.81544,-0.74815 -3.09026,0.53438 -6.17472,1.13127 -9.22932,1.84395 -0.57474,0.13092 -1.83596,0.40677 -2.41678,0.58256 -0.31056,0.094 -0.59538,0.38729 -0.9151,0.33191 -0.26458,-0.0458 0.45029,-0.39205 0.71756,-0.36613 0.15481,0.015 -0.17623,0.26397 -0.21323,0.41504 -0.0382,0.15608 -0.004,0.32136 -0.006,0.48203 0.26213,0.97223 0.9991,1.67607 1.56805,2.47329 0.52293,0.90171 1.00699,1.82888 1.38157,2.80237 0.32182,1.00731 0.62504,2.01929 0.95337,3.02449 0.30305,0.88849 0.60747,1.77567 0.90727,2.66642 0.26692,0.93653 0.55262,1.86845 0.79023,2.81346 0.32719,0.8331 0.5512,1.69577 0.87191,2.5302 0.32284,0.84722 0.39657,1.75104 0.44716,2.64765 0.0227,0.49498 0.0266,0.99049 0.0315,1.48586 0,0 -1.33495,0.68178 -1.33495,0.68178 l 0,0 c -0.004,-0.49325 -0.008,-0.98662 -0.029,-1.47952 -0.0469,-0.88148 -0.11253,-1.77129 -0.42702,-2.60533 -0.3226,-0.84055 -0.54723,-1.70898 -0.87773,-2.54777 -0.23473,-0.94163 -0.5235,-1.86829 -0.78564,-2.80202 -0.30408,-0.88958 -0.60073,-1.78093 -0.90629,-2.66893 -0.3271,-1.00306 -0.63284,-2.01161 -0.94984,-3.01785 -0.36693,-0.96297 -0.84813,-1.87732 -1.36346,-2.76873 -0.58825,-0.82181 -1.33656,-1.55052 -1.61142,-2.55303 -0.01,-0.2487 -0.10236,-0.8308 0.16221,-1.03777 1.53655,-1.20204 3.31941,-1.59872 5.17477,-1.98032 3.06212,-0.7009 6.14914,-1.30537 9.2446,-1.83795 1.53584,-0.20201 3.0354,-0.6745 3.93115,0.90309 0.78084,1.84779 1.00736,3.87181 1.22824,5.85154 0.26951,2.0246 0.60542,4.03967 0.78521,6.07584 0.19334,2.64672 0.57056,5.2699 0.90913,7.90094 0.56027,3.68295 1.23504,7.37713 2.44006,10.91004 1.38157,3.75724 2.79335,7.5069 4.65617,11.06024 1.29109,2.47759 2.70483,4.874 4.33999,7.14348 1.52026,2.0967 3.08526,4.16334 4.69222,6.19394 2.06869,2.50109 4.19532,4.94555 6.40757,7.32235 1.89668,2.09862 3.82647,4.17098 5.90379,6.09384 1.15816,0.9629 2.33321,1.90039 3.4313,2.93132 1.28341,1.08709 2.44139,2.3027 3.63658,3.48461 1.4559,1.43413 2.91924,2.8609 4.42041,4.24785 1.55108,1.45612 3.08055,2.94092 4.44757,4.57437 1.05403,1.24563 2.12128,2.47998 3.11747,3.77301 1.17153,1.35008 2.24102,2.77947 3.18663,4.29824 1.19281,1.78906 2.25991,3.66896 3.08466,5.65806 0.82128,2.18446 1.52011,4.41432 2.05747,6.68638 0.45312,1.81151 0.96927,3.6073 1.39027,5.42676 0.51321,1.9009 0.99187,3.80928 1.35764,5.74511 0.33301,1.88111 0.69238,3.75702 1.00948,5.64059 0.48056,2.72802 0.85406,5.47346 1.39892,8.19049 0.47826,2.97525 0.91234,5.96205 1.20032,8.96203 0.25454,2.52873 0.44982,5.07107 0.53567,7.61045 0.0359,1.99564 0.21902,4.04566 -0.29899,5.99513 -0.24981,1.20913 -0.69262,2.3418 -1.21266,3.45999 -0.46008,0.92068 -1.02821,1.77324 -1.76481,2.50013 -1.25526,1.05833 -2.66558,2.04536 -4.34995,2.15459 -1.79307,0.13324 -3.59644,0.008 -5.39299,0.0578 0,0 1.21312,-0.88139 1.21312,-0.88139 z"
       inkscape:connector-curvature="0" />
    <path
       style="opacity:1;fill:#28170b"
       id="path3351"
       d="m 311.31255,626.45002 c 1.94339,-0.58317 3.98706,-1.13033 5.66562,-2.32753 0.23741,-0.16933 0.36011,-0.46087 0.56808,-0.66529 0.56537,-0.55571 1.1658,-1.0746 1.7487,-1.6119 4.38996,-4.46397 7.49643,-9.91497 10.2827,-15.4665 2.11789,-4.46103 4.10539,-8.99858 5.422,-13.76602 0.6396,-2.03572 0.61522,-4.11046 0.45975,-6.2067 -0.0867,-2.55089 0.48206,-3.31717 3.38499,-3.71597 3.11195,-0.0163 6.21876,0.2529 9.31642,0.5259 2.66428,0.28934 5.31824,0.66951 7.9898,0.88827 0.86349,0.0234 1.69502,-0.0265 2.47485,-0.41698 0.14364,-0.0719 0.56811,-0.3001 0.42441,-0.2283 -0.31243,0.15611 -0.62047,0.32085 -0.93071,0.48128 0.79512,-0.57686 1.35069,-1.40927 1.95236,-2.17256 0.76986,-1.00728 1.44548,-2.02903 1.88758,-3.22082 0.5757,-1.25615 0.79756,-2.61553 0.93392,-3.9783 0.21847,-1.6323 0.38207,-3.27097 0.51595,-4.91216 0.18804,-1.21514 1.07586,-1.4993 2.28211,-1.9541 0.15383,-0.058 1.48515,0.0128 1.53416,0.0147 2.24528,0.18502 4.43002,0.74539 6.60132,1.31792 2.28577,0.5597 4.40666,1.58182 6.51732,2.59294 1.60759,0.7517 2.58257,2.18563 3.56523,3.59592 0.52567,0.84826 1.32371,2.08902 0.82089,3.13869 -0.0798,0.16648 -0.2181,0.2979 -0.32715,0.44685 -1.47675,1.2612 -3.32252,1.80042 -5.11828,2.40028 -1.36093,0.40631 -2.6716,0.94481 -3.94655,1.56632 0.24316,-0.12514 0.45707,-0.35128 0.72947,-0.37542 0.21196,-0.0188 -0.35855,0.22998 -0.52879,0.35764 -0.17928,0.13443 -0.35092,0.2791 -0.5186,0.42775 -0.67464,0.59805 -1.29598,1.25975 -1.95068,1.87951 -1.39374,1.48631 -3.01275,2.7237 -4.65256,3.92148 -2.13114,1.4364 -4.23433,2.91167 -6.5757,3.99221 -1.89489,0.71865 -3.85077,1.43572 -5.86074,1.74922 -1.3964,0.18609 -2.72978,-0.42096 -4.10187,-0.4106 -0.14052,0.0393 -0.53958,0.20365 -0.42155,0.11788 0.27193,-0.19759 0.56115,-0.4335 0.89602,-0.46264 0.19345,-0.0168 -0.27645,0.27329 -0.40387,0.41983 -0.53166,0.61143 -1.00813,1.27907 -1.50775,1.91653 -0.99921,1.26856 -1.94109,2.57355 -3.00286,3.79196 -1.25108,1.327 -2.36531,2.77242 -3.5447,4.16043 -1.04414,1.31802 -2.17494,2.56113 -3.23463,3.86632 -1.00196,1.22432 -1.95841,2.48556 -2.87301,3.77624 -0.86442,1.14744 -1.74631,2.28403 -2.65919,3.39373 -1.04279,1.18781 -2.04969,2.40426 -3.0816,3.60102 -0.65784,0.65949 -1.26064,1.37354 -1.92733,2.0235 -0.56163,0.55716 -1.11917,1.12014 -1.69833,1.65939 -0.76261,0.82733 -1.51833,1.66103 -2.29264,2.47792 -1.35609,1.40694 -2.58355,2.92845 -3.95731,4.31904 -1.16036,1.2127 -2.30926,2.43605 -3.47699,3.64174 -0.45352,0.54099 -0.94377,1.04842 -1.43693,1.55273 0,0 -1.37977,0.57284 -1.37977,0.57284 l 0,0 c 0.49725,-0.50248 0.9975,-1.00344 1.44276,-1.55397 1.17029,-1.20616 2.32139,-2.43033 3.48186,-3.64586 1.38204,-1.37851 2.6012,-2.90241 3.94972,-4.31205 0.77386,-0.81475 1.53783,-1.63837 2.2777,-2.48415 0.59461,-0.5219 1.13534,-1.10516 1.70153,-1.65703 0.68599,-0.62951 1.26116,-1.37209 1.93923,-2.01166 1.0281,-1.20196 2.04915,-2.40853 3.08919,-3.60102 0.9139,-1.10525 1.78708,-2.24438 2.65962,-3.38205 0.91626,-1.29302 1.86875,-2.56077 2.87324,-3.78689 1.0589,-1.30648 2.18862,-2.55054 3.23219,-3.86959 1.19056,-1.37943 2.2895,-2.83993 3.5467,-4.16292 1.06472,-1.21409 2.00927,-2.5141 3.00429,-3.78398 1.10658,-1.40978 2.06259,-3.13109 4.0179,-3.45642 1.36318,0.0466 2.68992,0.59255 4.07757,0.39574 1.99881,-0.34648 3.95158,-1.03009 5.83122,-1.77792 0.30779,-0.14598 0.60113,-0.32743 0.92336,-0.43793 0.15992,-0.0548 -0.5688,0.36542 -0.4301,0.26877 1.16495,-0.81177 2.37801,-1.55476 3.54982,-2.35653 1.63843,-1.19189 3.26589,-2.41612 4.65414,-3.90195 1.51513,-1.42421 2.84728,-2.92427 4.80783,-3.78484 1.2765,-0.61817 2.59677,-1.13553 3.95469,-1.54804 0.72861,-0.24316 1.46157,-0.47191 2.17534,-0.75698 0.21087,-0.0842 0.71554,-0.47434 0.62755,-0.26501 -0.10648,0.25331 -0.45549,0.30981 -0.69949,0.43616 -0.16502,0.0855 0.3076,-0.20858 0.46141,-0.31287 0.11684,-0.1311 0.26157,-0.24187 0.35051,-0.39329 0.57066,-0.97154 -0.26079,-2.23453 -0.74579,-3.02714 -0.96937,-1.39201 -1.93967,-2.79105 -3.52606,-3.53049 -2.09871,-1.01637 -4.21365,-2.02779 -6.49434,-2.57411 -2.16673,-0.56662 -4.34785,-1.12612 -6.59022,-1.28472 -0.28749,-0.006 -0.57499,-0.0259 -0.86247,-0.0192 -0.21731,0.005 -0.721,0.25986 -0.64981,0.0545 0.11113,-0.32063 0.56144,-0.38168 0.83351,-0.58448 0.0999,-0.0745 -0.23003,0.10941 -0.31656,0.19915 -0.19513,0.20234 -0.21842,0.49746 -0.27622,0.75086 -0.14131,1.64173 -0.31025,3.28122 -0.51869,4.91586 -0.13138,1.37068 -0.33383,2.74938 -0.91693,4.01161 -0.42974,1.21116 -1.08754,2.24531 -1.86677,3.26319 -0.59719,0.76931 -1.1542,1.60863 -1.93196,2.20612 -1.68201,1.04321 -2.56779,1.72209 -4.57153,1.58189 -2.66421,-0.23085 -5.30992,-0.626 -7.9693,-0.90356 -3.0954,-0.27147 -6.20405,-0.54863 -9.31368,-0.48372 -0.33408,0.0584 -0.738,0.38785 -1.00225,0.17526 -0.20374,-0.16391 0.35633,-0.45128 0.61545,-0.48644 0.17254,-0.0234 -0.20886,0.28205 -0.28007,0.44094 -0.28601,0.63811 -0.19158,1.33473 -0.21126,2.01096 0.1568,2.11519 0.18825,4.21126 -0.46195,6.26447 -1.32841,4.78684 -3.34135,9.33611 -5.46659,13.81732 -2.77436,5.55525 -5.86232,11.01304 -10.22701,15.49796 -0.58021,0.54093 -1.11567,1.13425 -1.74063,1.62279 -2.64696,2.06914 -5.48688,3.64699 -8.75533,4.44055 0,0 1.18312,-0.91343 1.18312,-0.91343 z"
       inkscape:connector-curvature="0" />
    <path
       style="opacity:1;fill:#28170b"
       id="path3353"
       d="m 300.28335,654.49881 c -3.32333,3.37508 -6.3511,7.02868 -9.41762,10.63498 -2.81205,3.36776 -5.5376,6.81347 -8.68273,9.8801 -2.87342,2.3429 -3.85015,2.37796 -7.10263,1.73501 -1.56044,-0.36621 -2.83209,-0.68721 -4.27721,0.15533 0.19829,-0.0117 0.61626,-0.23262 0.59486,-0.0351 -0.046,0.42414 -0.49081,0.6991 -0.70668,1.06708 -0.27202,0.4637 -0.5267,0.93843 -0.7553,1.42501 -1.01558,2.16176 -1.68796,4.43907 -2.38008,6.71756 -0.86286,3.33045 -1.96163,6.64632 -2.12596,10.1064 0.0364,1.88435 1.13507,3.31994 2.09051,4.85923 1.27297,2.25712 2.97427,4.36574 3.8323,6.84051 0.20722,0.59769 0.33175,1.22092 0.49762,1.83138 0.55723,3.49688 0.83753,7.14799 0.14945,10.65255 -0.11603,0.591 -0.30114,1.16631 -0.45171,1.74947 -0.56457,1.59195 -1.16702,3.28008 -2.37822,4.51472 -0.82984,0.8459 -1.7526,1.17352 -2.84208,1.77282 -1.45863,0.5918 -3.02044,0.44152 -4.54885,0.3183 -1.31086,-0.007 -2.58261,0.34071 -3.86652,0.56055 -1.08101,0.0439 -1.96241,0.54074 -2.88688,1.03021 0.26941,-0.15412 0.53632,-0.31268 0.80822,-0.46236 0.18558,-0.10215 -0.36563,0.21408 -0.54921,0.31978 -0.63856,0.36769 -1.26848,0.75097 -1.91721,1.1004 -1.07,0.57634 -2.24737,0.95496 -3.38637,1.36402 -2.33211,0.89351 -4.74358,1.53196 -7.15502,2.16452 -1.03202,0.167 -2.43938,0.9076 -3.4607,0.27031 -0.14274,-0.0891 -0.24651,-0.22904 -0.36977,-0.34356 -1.05753,-1.5716 -1.71685,-3.36785 -2.33776,-5.14532 -0.2737,-1.22873 -1.552,-3.51878 -1.43951,-4.76072 0.0117,-0.12881 0.0918,-0.24184 0.13765,-0.36277 0.54639,-0.29507 1.06091,-0.65886 1.63915,-0.88522 0.51352,-0.20101 2.14566,0.49694 2.75501,0.60317 1.04476,0.16435 2.03114,-0.2008 3.02552,-0.46851 1.30366,-0.52502 2.66613,-0.87649 4.0136,-1.26636 1.41377,-0.50308 2.91951,-0.5555 4.37507,-0.84654 0.62134,0.0813 3.76348,-1.70744 1.42708,-0.39555 0.68384,-0.48752 1.25237,-1.1045 1.85319,-1.68482 0.84932,-0.79952 0.6265,-1.9184 0.40486,-2.94403 -0.33928,-1.61831 -1.10332,-3.08413 -1.93089,-4.49872 -0.92501,-1.62207 -2.14844,-3.03225 -3.28924,-4.49888 -0.80969,-0.98854 -0.8749,-2.02054 -0.45729,-3.176 0.40391,-0.81001 1.01279,-1.4655 1.66204,-2.08287 0.88922,-0.81733 1.51966,-1.8197 2.12769,-2.84787 0.84163,-1.32226 0.81593,-2.90708 0.88809,-4.42013 0.28512,-2.49253 0.32983,-4.98437 0.24807,-7.48826 -0.0865,-2.4096 -0.37952,-4.80518 -0.54143,-7.21078 -0.13602,-1.68535 -0.52,-3.34557 -0.44232,-5.0411 0.32942,-1.82713 2.45101,-2.47856 3.97423,-3.14581 1.55292,-0.75593 3.22302,-1.23133 4.78325,-1.96474 0.21148,-0.10011 0.80077,-0.46486 0.63442,-0.30032 -0.20562,0.2034 -0.47063,0.38873 -0.75789,0.42245 -0.20221,0.0237 0.31666,-0.25611 0.4711,-0.38878 0.4993,-0.42892 0.83215,-0.86611 1.18911,-1.41702 0.62883,-1.00747 1.26871,-1.99335 2.07945,-2.8639 1.46298,-1.32155 3.18877,-2.35936 5.08311,-2.92164 1.83519,-0.42463 3.66538,-0.84731 5.5368,-1.07406 1.29861,-0.0961 2.57276,-0.38276 3.83551,-0.68715 0.10023,-0.037 0.93332,-0.34202 1.04596,-0.39485 0.14525,-0.0681 0.56284,-0.30774 0.41832,-0.23807 -1.61499,0.77851 -0.69566,0.34997 -0.086,-0.29613 1.00635,-1.30331 1.77231,-2.78699 2.35086,-4.32499 0.45169,-0.98267 0.74501,-2.02967 1.21989,-3.00102 0.54756,-0.98273 1.09507,-1.96614 1.60306,-2.97008 0.52146,-0.91387 1.01655,-1.84145 1.6051,-2.71521 0.60491,-0.86129 1.06848,-1.8014 1.55466,-2.73107 0,0 1.36762,-0.61619 1.36762,-0.61619 l 0,0 c -0.48321,0.93596 -0.95212,1.87733 -1.54957,2.74836 -0.59712,0.86509 -1.08487,1.79215 -1.61424,2.69737 -0.50023,1.00688 -1.05008,1.98878 -1.59956,2.96924 -0.50301,0.95638 -0.76428,2.01664 -1.23548,2.98957 -0.57151,1.55262 -1.34284,3.04056 -2.32295,4.37554 -1.04309,1.17362 -2.45501,1.95203 -3.94571,2.41428 -1.26453,0.30329 -2.54226,0.57167 -3.84157,0.67055 -1.86387,0.234 -3.69081,0.65285 -5.51629,1.09118 -2.42956,0.77071 -0.31427,0.21311 -0.39795,-0.1064 -0.0544,-0.20751 -0.37571,0.2082 -0.55378,0.3278 -0.36617,0.24592 -0.72168,0.50792 -1.06988,0.77869 -0.17638,0.13717 -0.33841,0.29188 -0.50761,0.43782 -0.82044,0.85865 -1.46912,1.82968 -2.09316,2.83843 -0.95773,1.55447 -2.34955,2.52663 -4.06985,3.21268 -1.56907,0.70978 -3.22704,1.20903 -4.78029,1.95987 -0.28482,0.12884 -0.54608,0.3353 -0.85446,0.3865 -0.19883,0.033 0.63258,-0.48684 0.50739,-0.32888 -0.13159,0.16605 -0.36398,0.21983 -0.52762,0.35441 -0.35285,0.29018 -0.51236,0.70518 -0.59875,1.13907 -0.10119,1.69265 0.27748,3.3514 0.41753,5.0339 0.15718,2.40784 0.45064,4.80495 0.54206,7.21608 0.0802,2.50668 0.0479,5.00233 -0.24161,7.49764 -0.0618,1.52378 -0.0112,3.13645 -0.8397,4.47851 -0.61991,1.02857 -1.21657,2.05771 -2.10899,2.88597 -0.65491,0.59635 -1.24918,1.24277 -1.68823,2.0186 -0.43146,1.11058 -0.42002,2.07902 0.37615,3.0468 1.14078,1.47467 2.36244,2.89364 3.29742,4.51658 0.835,1.42761 1.60936,2.90545 1.95639,4.53751 0.23664,1.03976 0.49971,2.23132 -0.32777,3.07866 -0.61865,0.56772 -1.16884,1.2074 -1.84408,1.7147 -1.29172,0.755 -2.51977,1.58596 -4.01935,1.83809 -1.45782,0.26248 -2.94945,0.36098 -4.361,0.85331 -1.35025,0.38882 -2.70569,0.76407 -4.01933,1.26754 -1.00988,0.27374 -2.01096,0.61488 -3.06956,0.41727 -0.72914,-0.14777 -1.44474,-0.48683 -2.18689,-0.55514 -0.17518,-0.0161 -0.61884,0.16436 -0.52757,0.014 0.19521,-0.32162 0.61187,-0.43795 0.9178,-0.65692 -0.0593,0.0982 -0.15872,0.18146 -0.17792,0.29454 -0.18201,1.0721 1.15183,3.65509 1.40008,4.73822 0.61855,1.75092 1.26972,3.52422 2.32339,5.0677 1.08312,0.94292 2.49332,0.22145 3.73114,-0.0372 2.40831,-0.62707 4.81128,-1.27866 7.13922,-2.16935 3.77911,-1.37602 1.88387,-0.61156 5.05272,-2.35537 0.92584,-0.49727 1.83778,-0.92952 2.91265,-0.98984 1.289,-0.22493 2.57121,-0.57021 3.88955,-0.53093 1.51548,0.12013 3.05746,0.24779 4.49138,-0.37626 -0.13781,0.10453 -0.54608,0.42457 -0.41341,0.3136 0.2389,-0.19984 0.50877,-0.36347 0.7323,-0.58036 1.23826,-1.20144 1.84962,-2.88749 2.42805,-4.46603 0.15465,-0.57902 0.34421,-1.14983 0.46395,-1.73706 0.71033,-3.4837 0.4312,-7.1189 -0.12465,-10.59834 -0.16547,-0.60236 -0.29102,-1.21715 -0.49639,-1.8071 -0.85877,-2.46693 -2.54478,-4.57575 -3.82704,-6.81956 -0.98133,-1.56326 -2.10964,-3.00889 -2.14346,-4.93217 0.16446,-3.48118 1.29466,-6.81039 2.15723,-10.16152 0.68384,-2.27808 1.34603,-4.55983 2.3388,-6.72856 0.1324,-0.28922 1.09411,-2.19474 1.42747,-2.52019 0.58057,-0.56677 1.29103,-0.98305 1.93655,-1.47457 1.48025,-0.75615 2.77136,-0.43437 4.33107,-0.0668 0.9441,0.18259 1.94597,0.44012 2.91723,0.34818 0.32984,-0.0312 0.6407,-0.2296 0.97145,-0.21027 0.13772,0.008 -0.44323,0.3287 -0.33159,0.24766 0.32491,-0.23584 0.64761,-0.47472 0.97141,-0.71208 3.17262,-3.06178 5.92178,-6.5087 8.74279,-9.89018 3.04734,-3.59082 6.05411,-7.22835 9.33282,-10.61224 0,0 1.38191,-0.5724 1.38191,-0.5724 z"
       inkscape:connector-curvature="0" />
    <path
       style="opacity:1;fill:#28170b"
       id="path3355"
       d="m 297.23123,571.39877 c 2.89369,-0.60803 5.84398,-0.99265 8.79997,-1.08257 1.59882,-0.05 3.16674,0.0294 4.64105,0.67388 0.66637,0.42972 1.27716,0.95219 1.81209,1.53755 0.584,0.72705 1.14832,1.47814 1.63313,2.27674 0.62785,0.98281 1.07326,2.06787 1.52652,3.13857 0.45674,1.04862 0.95268,2.07271 1.5117,3.06963 0.66098,1.34003 1.45771,2.60028 2.24622,3.86661 1.17495,1.69131 2.34836,3.38979 3.63586,4.99782 0.78445,1.20022 1.88028,2.04843 3.01049,2.88845 0.88305,0.59128 1.8566,1.04091 2.82508,1.47424 0.94053,0.51486 1.97956,0.80427 2.93059,1.29395 0,0 -1.25277,0.82324 -1.25277,0.82324 l 0,0 c -0.95435,-0.47674 -1.98556,-0.7795 -2.92591,-1.28881 -0.97428,-0.44269 -1.95839,-0.89171 -2.84017,-1.50298 -1.13917,-0.84811 -2.23307,-1.717 -3.02262,-2.92604 -1.28648,-1.61612 -2.45683,-3.32349 -3.64512,-5.0125 -0.78977,-1.26815 -1.59433,-2.52637 -2.26094,-3.86622 -0.55934,-1.00304 -1.05662,-2.03272 -1.51628,-3.08598 -0.44893,-1.06455 -0.89438,-2.14161 -1.5197,-3.11725 -0.48016,-0.78954 -1.03824,-1.53393 -1.61975,-2.25001 -0.52581,-0.56542 -1.11874,-1.08018 -1.77667,-1.48581 -1.45454,-0.62348 -3.01058,-0.67679 -4.57987,-0.63682 -2.95599,0.0992 -5.91044,0.47564 -8.79682,1.12361 0,0 1.18392,-0.9093 1.18392,-0.9093 z"
       inkscape:connector-curvature="0" />
    <path
       style="opacity:1;fill:#28170b"
       id="path3357"
       d="m 342.65634,605.19558 c 4.33472,1.66351 8.42337,3.87206 12.54538,5.99019 3.78603,2.05094 7.4879,4.27849 11.04216,6.71113 1.82739,1.17311 2.51031,2.48964 3.00799,4.54469 0.68992,3.67812 1.07736,7.39845 1.43979,11.11952 0.36624,3.58688 0.52316,7.18919 0.77931,10.78459 0.3048,2.73842 0.21463,5.48502 0.0914,8.22961 -0.0198,1.33465 -0.32371,2.82465 0.33013,4.0718 0.15312,0.29208 0.36451,0.54968 0.54677,0.82451 3.13326,3.79952 7.34525,6.47047 11.54413,8.93933 4.72602,2.67982 9.6927,4.88972 14.77205,6.80166 1.9131,0.80008 4.08756,1.28018 5.63625,2.75178 0.70867,0.67339 1.03826,1.25165 1.58087,2.05175 1.44232,2.73711 1.9522,5.79549 2.23389,8.84112 0.13922,2.113 0.12317,4.28326 -0.54559,6.31136 -0.91616,1.82619 -1.97503,1.67115 -3.39386,0.86024 -1.02428,-0.6111 -2.23762,-0.613 -3.37297,-0.84863 -0.96701,-0.26232 -2.1369,-0.10614 -2.82513,-0.93556 -0.34062,-0.89345 -0.3388,-1.87407 -0.56067,-2.80603 -0.19087,-1.13012 -0.86844,-1.94775 -1.663,-2.72045 -1.35271,-1.13283 -2.90265,-1.99729 -4.41684,-2.89127 -1.25788,-0.80218 -2.60033,-1.44881 -3.88567,-2.20154 -1.58533,-0.85403 -3.18523,-1.67942 -4.80932,-2.45741 -1.80373,-0.91047 -3.53748,-1.95014 -5.30423,-2.92912 -1.90064,-1.05419 -3.80488,-2.10423 -5.68899,-3.18791 -2.0263,-1.12864 -3.98111,-2.37806 -5.92406,-3.64335 -1.68407,-1.19352 -3.63669,-2.05176 -5.05911,-3.57588 -0.81417,-1.0781 -1.04827,-2.41257 -1.33912,-3.69893 -0.37102,-1.23571 -0.64922,-2.49415 -0.99911,-3.73521 -0.29834,-1.44335 -0.58971,-2.88849 -0.89296,-4.33129 -0.50164,-2.10553 -0.93412,-4.22434 -1.392,-6.33956 -0.40625,-1.53025 -0.49294,-3.11138 -0.72676,-4.6685 -0.26156,-1.09945 -0.28228,-2.24061 -0.50613,-3.34354 -0.19989,-1.21263 -0.53762,-2.39041 -0.88324,-3.56775 -0.35315,-1.54734 -0.78463,-3.07395 -1.1747,-4.61187 -0.31091,-0.97622 -0.64627,-1.93526 -1.13785,-2.83573 -0.54123,-1.00526 -1.48817,-1.45158 -2.47585,-1.90602 -1.17226,-0.52791 -2.46431,-0.61861 -3.70781,-0.89145 -1.00509,-0.14156 -1.95041,-0.40053 -2.82943,-0.91099 -1.34613,-0.96157 -2.20966,-2.47941 -3.13212,-3.82748 -0.88881,-1.52532 -1.76657,-3.05765 -2.64078,-4.5917 0,0 1.28646,-0.74146 1.28646,-0.74146 l 0,0 c 0.86649,1.53347 1.74017,3.06376 2.63242,4.58205 0.91173,1.32918 1.76603,2.83123 3.11093,3.76127 0.87399,0.48742 1.81441,0.72511 2.80112,0.87555 1.25128,0.2738 2.55258,0.3683 3.72591,0.91823 1.01497,0.46855 1.97249,0.95904 2.53056,1.98465 0.49934,0.91158 0.83519,1.88399 1.14786,2.87361 0.38415,1.53729 0.81968,3.06089 1.17348,4.60591 0.34671,1.18045 0.69297,2.35952 0.89541,3.5752 0.23078,1.10482 0.23895,2.25144 0.50354,3.35386 0.23776,1.55432 0.30907,3.13586 0.71452,4.66456 0.45482,2.11598 0.87575,4.23708 1.39421,6.33922 0.30309,1.43858 0.60697,2.87679 0.89757,4.31747 0.3493,1.24443 0.62486,2.50631 0.99791,3.74474 0.2838,1.26001 0.5112,2.56985 1.30201,3.62927 1.41114,1.51321 3.35149,2.37069 5.02167,3.55663 1.94488,1.26059 3.90307,2.50213 5.9279,3.63136 1.88297,1.08316 3.78525,2.13411 5.68473,3.18784 1.7657,0.97815 3.50198,2.01113 5.30653,2.91723 1.62731,0.78198 3.22857,1.61561 4.82256,2.46319 1.28637,0.74888 2.62116,1.40851 3.88026,2.20604 1.52288,0.90222 3.08014,1.77762 4.44193,2.91722 0.81407,0.79045 1.50584,1.63837 1.70607,2.7927 0.22328,0.90951 0.24238,1.85792 0.53319,2.74167 0.66409,0.7724 1.85927,0.57471 2.76404,0.85528 1.15124,0.22615 2.37102,0.25957 3.40206,0.88606 0.18125,0.1016 0.61519,0.35704 0.82029,0.42541 0.13507,0.045 0.49725,-0.0368 0.41915,0.0822 -0.21618,0.32948 -0.6211,0.48559 -0.94187,0.71449 -0.21627,0.15432 0.99078,-0.76955 0.48699,-0.63095 0.71558,-1.99997 0.72166,-4.16879 0.59557,-6.26654 -0.26523,-3.0225 -0.76648,-6.06039 -2.20226,-8.77351 -0.53614,-0.78944 -0.85471,-1.35142 -1.55663,-2.01289 -1.53845,-1.44977 -3.69839,-1.92542 -5.58618,-2.73188 -5.07408,-1.93089 -10.03761,-4.1514 -14.76218,-6.8372 -4.22462,-2.48193 -8.45423,-5.16633 -11.63668,-8.95906 -0.19004,-0.28368 -0.40984,-0.54954 -0.57013,-0.85103 -0.67265,-1.26515 -0.3841,-2.77122 -0.34879,-4.12941 0.13365,-2.74208 0.23393,-5.4864 -0.0651,-8.22353 -0.25796,-3.59521 -0.40869,-7.19755 -0.77045,-10.78482 -0.36891,-3.71065 -0.73219,-7.42542 -1.45374,-11.08881 -0.49271,-2.01578 -1.16289,-3.2956 -2.94978,-4.45424 -3.5274,-2.44784 -7.20804,-4.68533 -10.98418,-6.72652 -4.13024,-2.12335 -8.23863,-4.31949 -12.60289,-5.93559 0,0 1.24124,-0.83157 1.24124,-0.83157 z"
       inkscape:connector-curvature="0" />
    <path
       style="opacity:1;fill:#28170b"
       id="path3359"
       d="m 324.65889,611.97292 c -1.98773,-1.62547 -3.41377,-3.78437 -4.56549,-6.05135 -0.96206,-2.01369 -1.55185,-4.18552 -2.71059,-6.10136 -1.0183,-1.51284 -2.40554,-2.71986 -3.85634,-3.80322 -1.54635,-1.1329 -3.11313,-2.23021 -4.84116,-3.06768 -1.37644,-0.54292 -2.67442,-0.14531 -3.9662,0.39725 -0.18799,0.0973 -0.74119,0.40752 -0.56398,0.29177 2.01471,-1.31591 -0.93794,0.80723 -1.19701,1.00443 -0.81173,0.68168 -1.50345,1.48587 -2.14767,2.32332 -0.73079,0.87649 -1.28245,1.88234 -1.70283,2.93927 -0.29238,0.97604 -0.69166,1.92698 -0.74695,2.95342 -0.0191,0.93592 0.33148,1.76224 0.81342,2.54489 0.40114,0.72535 1.0327,1.28883 1.76028,1.67397 0.83028,0.32384 1.67832,0.58008 2.50583,0.90968 0.79294,0.65046 -0.18632,1.55791 -0.68779,2.06152 -0.58149,0.55699 -1.06589,1.20321 -1.60526,1.79905 0,0 -1.38497,0.57972 -1.38497,0.57972 l 0,0 c 0.55617,-0.58422 1.024,-1.24697 1.60596,-1.80771 0.39144,-0.36787 1.49961,-1.28102 0.82512,-1.79695 -0.83184,-0.33143 -1.69131,-0.57517 -2.51704,-0.92405 -0.7388,-0.41593 -1.3873,-0.99195 -1.79877,-1.74194 -0.49424,-0.80737 -0.86501,-1.65842 -0.85681,-2.62256 0.0332,-1.04457 0.43873,-2.00608 0.7283,-2.99912 0.40738,-1.07001 0.95472,-2.09308 1.68659,-2.97823 0.64337,-0.84565 1.32865,-1.65826 2.1309,-2.36032 1.37335,-1.02828 2.73355,-2.08709 4.32623,-2.77521 1.32061,-0.53775 2.65381,-0.86914 4.0347,-0.29086 1.72675,0.85525 3.30134,1.95441 4.85172,3.09389 1.46405,1.098 2.86638,2.31577 3.88828,3.85072 1.15752,1.92235 1.74595,4.09693 2.70293,6.11823 1.14089,2.24857 2.55552,4.39612 4.55256,5.97999 0,0 -1.26396,0.79944 -1.26396,0.79944 z"
       inkscape:connector-curvature="0" />
    <path
       style="opacity:1;fill:#28170b"
       id="path3361"
       d="m 296.64185,572.74355 c 0.0432,1.47691 0.31116,2.91539 0.63372,4.35094 0.28918,0.91118 0.68903,1.78071 0.99374,2.68569 0.33671,1.06085 0.362,2.15231 0.24255,3.24768 -0.18766,1.22356 -0.66257,2.16292 -1.64425,2.91481 -1.38863,0.98277 -2.94361,1.75065 -4.54681,2.32149 -0.67251,0.27114 -1.35793,0.49814 -2.01898,0.79984 -0.16235,0.0741 -0.63422,0.3271 -0.47939,0.23837 0.28226,-0.16176 0.57468,-0.3051 0.86202,-0.45766 -0.86222,0.44367 -1.19116,1.17193 -1.54177,2.0138 -0.25651,0.62659 -0.40756,1.28338 -0.63803,1.91981 0,0 -1.36161,0.63502 -1.36161,0.63502 l 0,0 c 0.23302,-0.63912 0.39483,-1.29147 0.63502,-1.92744 0.36763,-0.84227 0.62024,-1.64506 1.5109,-2.09459 1.36425,-0.81928 2.68794,-1.57867 4.2124,-2.04965 0.52507,-0.19623 1.02681,-0.4256 1.5393,-0.65197 0.19974,-0.0882 0.70404,-0.45136 0.60199,-0.25832 -0.12645,0.23921 -0.43742,0.33132 -0.69078,0.42628 -0.19991,0.0749 0.351,-0.24314 0.52651,-0.36471 1.00697,-0.69724 1.48802,-1.59314 1.69262,-2.80084 0.1266,-1.07541 0.1139,-2.1438 -0.21525,-3.18822 -0.30372,-0.91098 -0.70976,-1.78389 -0.9974,-2.70138 -0.32049,-1.44633 -0.58611,-2.89387 -0.65081,-4.37908 0,0 1.33431,-0.67987 1.33431,-0.67987 z"
       inkscape:connector-curvature="0" />
    <path
       style="opacity:1;fill:#c87137"
       d="m 336.63702,719.18278 c 1.29587,-4.07776 0.10762,-23.58035 -1.91345,-31.40494 -2.03948,-7.8959 -7.80513,-14.89813 -22.92239,-27.83864 -21.6976,-18.57334 -28.60349,-25.94662 -33.07403,-35.31249 -2.68095,-5.61665 -4.40978,-11.04949 -6.16882,-19.38549 -1.17155,-5.55189 -1.34159,-7.48916 -1.2926,-14.72662 l 0.0564,-8.33376 -2.04227,-6.45536 c -1.12325,-3.55044 -2.59724,-7.27315 -3.27554,-8.27268 -0.6783,-0.99953 -1.13007,-2.08627 -1.00393,-2.41499 0.24492,-0.63825 10.6098,-2.8294 13.31921,-2.81569 1.43921,0.007 1.68123,0.22086 2.15563,1.90224 0.29393,1.04172 1.10274,6.41829 1.79737,11.94792 1.44631,11.51345 2.42483,15.75949 5.20451,22.58371 4.84659,11.89851 11.90163,21.03315 28.27342,36.60748 16.21884,15.42884 20.02515,20.66356 23.04317,31.69073 5.67881,20.74907 8.4054,44.99106 5.65013,50.23513 -1.56689,2.98225 -2.56988,3.63494 -5.58581,3.63494 l -2.74266,0 0.52166,-1.64149 z"
       id="path3367"
       inkscape:connector-curvature="0" />
    <path
       style="opacity:1;fill:#c87137"
       d="m 313.40265,630.57088 -3.19676,-2.84742 2.23611,-0.84881 c 7.26944,-2.75943 12.9527,-9.31806 19.03367,-21.96538 3.69663,-7.68832 5.57933,-13.63113 5.57933,-17.61135 l 0,-3.34932 2.65165,-0.008 c 1.4584,-0.005 5.71999,0.26189 9.47018,0.59232 3.75019,0.33042 7.426,0.44795 8.16846,0.26117 3.4631,-0.87122 6.69623,-6.35807 7.26872,-12.33551 0.41057,-4.28692 0.30762,-4.244 6.42585,-2.67922 6.07177,1.5529 9.31028,3.30504 10.98253,5.9419 0.78793,1.24242 1.32215,2.54675 1.18717,2.8985 -0.13497,0.35174 -1.19949,0.92456 -2.36559,1.27293 -3.51128,1.04897 -6.00242,2.53435 -9.19125,5.48042 -6.11396,5.64853 -11.90567,8.49155 -16.41582,8.05819 -3.05204,-0.29327 -3.97605,0.21613 -6.66456,3.67411 -1.19539,1.53752 -3.88638,4.83161 -5.97997,7.32021 -2.0936,2.48859 -5.30082,6.45664 -7.12717,8.81787 -3.22762,4.17291 -17.98803,20.21702 -18.5738,20.18916 -0.1606,-0.008 -1.73053,-1.29522 -3.48875,-2.86131 z"
       id="path3369"
       inkscape:connector-curvature="0" />
    <path
       style="opacity:1;fill:#28170b"
       id="path3375"
       d="m 297.16018,656.30665 c 0.98642,-1.09031 2.01659,-2.13934 2.98589,-3.24515 0.54128,-0.61821 0.26404,-0.32318 0.82998,-0.88669 0,0 1.38286,-0.57091 1.38286,-0.57091 l 0,0 c -0.57432,0.55042 -0.29493,0.25905 -0.83579,0.87637 -0.96688,1.10884 -2.0038,2.15128 -2.97846,3.25291 0,0 -1.38448,0.57347 -1.38448,0.57347 z"
       inkscape:connector-curvature="0" />
    <path
       style="opacity:1;fill:#28170b"
       id="path3379"
       d="m 287.4504,646.66828 c 0.75341,-1.37614 1.44097,-2.80951 2.42345,-4.03998 0,0 1.37423,-0.58525 1.37423,-0.58525 l 0,0 c -1.00927,1.20109 -1.69047,2.63868 -2.4282,4.01477 0,0 -1.36948,0.61046 -1.36948,0.61046 z"
       inkscape:connector-curvature="0" />
    <path
       style="opacity:1;fill:#28170b"
       id="path3381"
       d="m 300.01972,611.13366 c 0.23125,-0.1166 0.62506,-0.59951 0.69375,-0.3498 0.007,0.0236 -1.75177,1.28381 -2.48247,1.82936 0,0 -1.38741,0.55095 -1.38741,0.55095 l 0,0 c 1.41293,-1.04233 2.77723,-2.15342 4.34179,-2.97358 0,0 -1.16566,0.94307 -1.16566,0.94307 z"
       inkscape:connector-curvature="0" />
    <path
       style="opacity:1;fill:#28170b"
       id="path3383"
       d="m 324.80901,609.31046 c 1.25388,0.88388 2.55434,1.7051 3.80325,2.59545 0,0 -1.26058,0.80164 -1.26058,0.80164 l 0,0 c -1.25005,-0.88995 -2.54299,-1.72352 -3.80709,-2.59323 0,0 1.26442,-0.80386 1.26442,-0.80386 z"
       inkscape:connector-curvature="0" />
    <path
       style="opacity:1;fill:#28170b"
       id="path3385"
       d="m 331.87209,595.03344 c 1.01084,0.54822 2.04487,1.047 3.0661,1.57533 0,0 -1.25014,0.81972 -1.25014,0.81972 l 0,0 c -1.01702,-0.53128 -2.04658,-1.03319 -3.0644,-1.56308 0,0 1.24844,-0.83197 1.24844,-0.83197 z"
       inkscape:connector-curvature="0" />
    <path
       style="opacity:1;fill:#28170b"
       id="path3387"
       d="m 337.51002,618.45333 c -0.67164,-1.24919 -1.36906,-2.48439 -2.06025,-3.72335 0,0 1.29699,-0.74595 1.29699,-0.74595 l 0,0 c 0.68635,1.24113 1.37512,2.47972 2.0621,3.72019 0,0 -1.29884,0.74911 -1.29884,0.74911 z"
       inkscape:connector-curvature="0" />
    <path
       style="opacity:1;fill:#c87137"
       d="m 402.76829,692.26975 c -2.91441,-0.70988 -3.56896,-1.29791 -3.58118,-3.21722 -0.0108,-1.69953 -3.03665,-4.40929 -7.85773,-7.03692 -21.10269,-11.5016 -28.57269,-15.97165 -29.44627,-17.62065 -0.69152,-1.30534 -3.94466,-15.71414 -4.87716,-21.60187 -0.9495,-5.99508 -2.55932,-12.50913 -3.57841,-14.47984 -0.89384,-1.72848 -2.6011,-2.6493 -6.3408,-3.41991 -3.19612,-0.65859 -3.80032,-1.1872 -6.87107,-6.01138 -3.65589,-5.74344 -3.59184,-5.15532 -0.93718,-8.60526 1.29102,-1.67777 2.55817,-3.18082 2.81591,-3.34011 1.17021,-0.72323 20.15375,9.51308 23.58289,12.71638 1.08521,1.01374 1.72344,2.25349 2.1257,4.12916 0.97607,4.55127 2.08196,18.05779 2.08196,25.42752 0,7.88075 0.25282,8.73726 3.42482,11.60297 4.60357,4.15905 15.0393,10.00792 23.59676,13.22519 5.03394,1.89256 6.53526,2.95088 7.75221,5.46477 2.10696,4.35239 2.91782,13.78914 1.15886,13.48665 -0.17862,-0.0307 -1.55082,-0.35449 -3.04931,-0.71948 z"
       id="path3391"
       inkscape:connector-curvature="0" />
    <path
       style="opacity:1;fill:#c87137"
       d="m 240.18529,733.32491 c -0.51309,-0.61839 -3.1354,-7.23685 -3.1354,-7.91342 0,-0.18881 0.85232,-0.34784 1.89404,-0.35341 2.78146,-0.0149 10.56592,-2.1021 13.76333,-3.69032 1.52785,-0.75892 3.087,-1.93035 3.46478,-2.60317 1.00108,-1.78297 0.0668,-4.68254 -2.97322,-9.2278 -1.38153,-2.06555 -2.51187,-4.18205 -2.51187,-4.70332 0,-0.52127 0.91184,-2.05122 2.02631,-3.39988 1.11447,-1.34866 2.19407,-3.04913 2.39911,-3.77882 0.31785,-1.1311 0.30051,-9.84644 -0.0416,-20.93006 l -0.0906,-2.93585 4.21002,-1.81607 c 3.64392,-1.57187 4.4765,-2.17679 6.19182,-4.49874 1.08999,-1.47546 2.41228,-2.91305 2.93842,-3.19463 0.52614,-0.28158 3.05535,-0.87415 5.62046,-1.31681 5.24387,-0.90495 6.88772,-1.43327 8.22498,-2.64348 0.50797,-0.4597 2.38272,-3.79633 4.16611,-7.41472 3.78713,-7.68385 4.40742,-8.60302 5.40797,-8.01369 0.39652,0.23356 2.49189,2.04864 4.65638,4.03351 l 3.93542,3.60886 -2.06281,2.45206 c -1.13454,1.34863 -5.55192,6.54317 -9.81641,11.54342 l -7.75361,9.09138 -4.17996,-0.13706 c -5.27098,-0.17282 -6.47166,0.55521 -8.33321,5.05284 -2.02229,4.88597 -4.00278,12.46391 -4.06133,15.53981 -0.0483,2.53576 0.19919,3.18998 2.83876,7.50493 1.5904,2.59987 3.06774,5.55457 3.28299,6.566 0.73633,3.4599 0.45515,10.76507 -0.51067,13.2676 -1.305,3.38138 -2.35821,4.13538 -6.00019,4.29555 -4.17517,0.18362 -5.43183,0.50454 -9.70298,2.47793 -3.79314,1.75254 -10.34039,3.76871 -12.23841,3.76871 -0.59661,0 -1.32046,-0.28411 -1.60856,-0.63135 z"
       id="path3393"
       inkscape:connector-curvature="0" />
    <path
       style="opacity:1;fill:#28170b"
       id="path3395"
       d="m 288.4486,591.38709 c -0.42025,1.48364 -0.92955,2.93541 -1.41756,4.39686 -0.27918,0.66368 -0.14051,0.34176 -0.41517,0.96613 0,0 -1.36282,0.62435 -1.36282,0.62435 l 0,0 c 0.27651,-0.62174 0.13475,-0.30335 0.42532,-0.95516 0.48422,-1.4588 1.0116,-2.90025 1.41832,-4.38457 0,0 1.35191,-0.64761 1.35191,-0.64761 z"
       inkscape:connector-curvature="0" />
    <path
       style="opacity:1;fill:#28170b"
       id="path3397"
       d="m 299.50895,612.07698 c -1.4828,0.44017 -2.91326,1.01295 -4.33848,1.60883 -0.4723,0.16796 -0.93435,0.3576 -1.41001,0.5154 0,0 1.18595,-0.92238 1.18595,-0.92238 l 0,0 c 0.46923,-0.16273 0.9313,-0.34314 1.39625,-0.51779 1.42695,-0.59777 2.87061,-1.13971 4.34333,-1.61429 0,0 -1.17704,0.93023 -1.17704,0.93023 z"
       inkscape:connector-curvature="0" />
    <path
       style="opacity:1;fill:#28170b"
       id="path3399"
       d="m 332.80395,595.94018 c -1.30212,-0.59413 -2.71441,-0.85444 -4.07701,-1.26871 -0.70631,-0.19218 -0.35852,-0.0839 -1.04355,-0.32424 0,0 1.24027,-0.83956 1.24027,-0.83956 l 0,0 c 0.68055,0.23125 0.33438,0.12398 1.03883,0.32081 1.37076,0.41901 2.7934,0.68282 4.09858,1.29452 0,0 -1.25712,0.81718 -1.25712,0.81718 z"
       inkscape:connector-curvature="0" />
    <path
       style="opacity:1;fill:#28170b"
       id="path3401"
       d="m 298.43151,571.09554 c 1.2559,-0.41027 -3.93361,1.27606 -2.80345,1.13087 0.25181,-0.0323 0.50227,-0.53696 0.67565,-0.35151 0.16726,0.17888 -0.37535,0.31464 -0.56303,0.47197 -0.9337,0.87904 -1.34736,2.00631 -1.54874,3.23955 -0.0938,0.98872 0.57857,1.30817 1.37777,1.64003 0.57061,0.16217 1.12378,0.38465 1.63785,0.67921 0,0 -1.25856,0.81968 -1.25856,0.81968 l 0,0 c -0.51589,-0.28184 -1.06525,-0.49453 -1.6277,-0.66646 -0.84905,-0.36986 -1.55046,-0.76756 -1.47407,-1.8135 0.19007,-1.25713 0.58452,-2.41976 1.51155,-3.33807 1.50981,-1.33739 3.35615,-2.1404 5.26351,-2.72231 0,0 -1.19078,0.91054 -1.19078,0.91054 z"
       inkscape:connector-curvature="0" />
    <path
       style="opacity:1;fill:#c87137"
       d="m 294.81215,608.64428 c -2.42972,-3.75596 -5.92612,-10.84478 -6.51375,-13.2064 -0.23619,-0.94921 -0.008,-2.10915 0.71958,-3.6569 0.91869,-1.95442 1.50606,-2.4665 4.26304,-3.71658 1.75866,-0.79741 3.69045,-1.97889 4.29287,-2.62552 1.32125,-1.41819 1.45402,-4.38718 0.3377,-7.55119 -0.41669,-1.18102 -0.75762,-2.80059 -0.75762,-3.59904 0,-1.02618 -0.25909,-1.46688 -0.88388,-1.50342 -1.60115,-0.0937 2.57766,-0.89044 6.50356,-1.24006 6.73014,-0.59933 8.04845,0.36852 12.2243,8.9746 2.64455,5.45017 7.41582,11.72022 10.32563,13.56916 1.31313,0.83438 3.58075,1.86497 5.03916,2.2902 1.4584,0.42522 2.65165,0.9741 2.65165,1.21972 0,0.65315 -3.8801,9.3631 -4.89135,10.98 -0.47511,0.75965 -0.89773,1.44099 -0.93915,1.51408 -0.0414,0.0731 -0.89978,-0.21158 -1.90746,-0.63262 -1.60262,-0.66962 -2.12435,-1.38228 -4.16463,-5.68874 -1.28286,-2.70777 -3.05024,-5.69174 -3.92751,-6.63105 -2.10106,-2.24965 -7.28153,-5.61869 -8.61814,-5.60468 -2.98849,0.0313 -8.66152,4.15337 -10.39644,7.55409 -2.23865,4.38812 -1.38993,7.79425 2.32933,9.34826 2.13743,0.89307 2.15834,0.84008 -0.9923,2.51529 l -2.38161,1.26631 -2.31298,-3.57551 z"
       id="path3405"
       inkscape:connector-curvature="0" />
  </g>
</svg>
