<?xml version="1.0" encoding="UTF-8" standalone="no"?>
<!-- Created with Inkscape (http://www.inkscape.org/) -->

<svg
   xmlns:dc="http://purl.org/dc/elements/1.1/"
   xmlns:cc="http://creativecommons.org/ns#"
   xmlns:rdf="http://www.w3.org/1999/02/22-rdf-syntax-ns#"
   xmlns:svg="http://www.w3.org/2000/svg"
   xmlns="http://www.w3.org/2000/svg"
   xmlns:sodipodi="http://sodipodi.sourceforge.net/DTD/sodipodi-0.dtd"
   xmlns:inkscape="http://www.inkscape.org/namespaces/inkscape"
   width="210mm"
   height="297mm"
   viewBox="0 0 744.09448819 1052.3622047"
   id="svg3445"
   version="1.1"
   inkscape:version="0.91 r13725"
   sodipodi:docname="2.svg"
   inkscape:export-filename="/home/tom/python/heistboys/sprites/items/unusable_items/metal_scraps/2.png"
   inkscape:export-xdpi="25.652367"
   inkscape:export-ydpi="25.652367">
  <defs
     id="defs3447" />
  <sodipodi:namedview
     id="base"
     pagecolor="#ffffff"
     bordercolor="#666666"
     borderopacity="1.0"
     inkscape:pageopacity="0.0"
     inkscape:pageshadow="2"
     inkscape:zoom="1.979899"
     inkscape:cx="248.64967"
     inkscape:cy="585.86737"
     inkscape:document-units="px"
     inkscape:current-layer="layer1"
     showgrid="false"
     inkscape:window-width="1918"
     inkscape:window-height="1060"
     inkscape:window-x="0"
     inkscape:window-y="18"
     inkscape:window-maximized="1" />
  <metadata
     id="metadata3450">
    <rdf:RDF>
      <cc:Work
         rdf:about="">
        <dc:format>image/svg+xml</dc:format>
        <dc:type
           rdf:resource="http://purl.org/dc/dcmitype/StillImage" />
        <dc:title></dc:title>
      </cc:Work>
    </rdf:RDF>
  </metadata>
  <g
     inkscape:label="Layer 1"
     inkscape:groupmode="layer"
     id="layer1">
    <path
       style="opacity:1;fill:#28170b"
       id="path3457"
       d="m 320.04621,545.28701 c -2.55046,1.88571 -5.45527,2.34445 -8.50874,2.65543 -4.04065,0.40791 -6.84805,-0.35226 -10.14816,-2.78372 -0.87944,-0.64795 -1.68897,-1.38578 -2.53346,-2.07868 -5.55956,-5.09269 -10.24104,-11.03058 -14.45669,-17.25663 -1.5082,-2.33388 -3.08827,-4.69127 -3.98479,-7.34651 -0.37795,-1.11936 -0.40427,-1.5152 -0.60691,-2.66261 -0.34788,-3.27984 -0.22609,-6.59056 -0.20183,-9.88339 -0.0794,-2.98033 0.15873,-5.93697 1.1387,-8.76138 0.87496,-2.24806 2.91413,-3.37326 5.10482,-4.17638 1.92525,-0.46508 3.88768,-0.78418 5.85609,-1.00248 1.67064,-0.1703 3.35141,-0.18676 5.02905,-0.2007 1.1552,-0.007 2.31043,-0.004 3.46564,-7.7e-4 0.83808,10e-4 1.67615,8.5e-4 2.51423,0.002 1.62914,-0.0363 2.96572,1.10993 4.19168,2.04774 1.14495,0.87278 2.14533,1.85705 2.81625,3.13384 0.8229,1.68022 1.37707,3.46388 1.92741,5.24593 0.39196,1.34552 0.55265,2.73639 0.62943,4.13069 0.0424,0.97338 0.0348,1.94783 0.0298,2.92182 -0.005,1.06702 -0.007,2.13405 -0.008,3.20109 1.9e-4,0.90076 5.9e-4,1.80153 2e-4,2.70229 -0.0878,1.26442 -1.00114,1.84144 -2.27072,2.17719 -1.00696,0.11549 -2.02491,0.0902 -3.03695,0.087 0,0 1.2125,-0.88038 1.2125,-0.88038 l 0,0 c 1.00416,0.003 2.02243,0.043 3.015,-0.12906 0.60214,-0.22683 0.51351,-0.21073 -0.79492,0.52904 -0.0813,0.046 0.16444,-0.0937 0.22962,-0.16054 0.24299,-0.24934 0.24526,-0.62424 0.30828,-0.94196 -3.6e-4,-0.90121 1.2e-4,-1.80242 0.002,-2.70363 0.001,-1.06705 0.004,-2.13411 0.008,-3.20116 0.002,-0.97181 0.0127,-1.94405 -0.0237,-2.91543 -0.0696,-1.38403 -0.21918,-2.7658 -0.60479,-4.10236 -0.54164,-1.77512 -1.08941,-3.5517 -1.91514,-5.22072 -0.66399,-1.25115 -1.65977,-2.21862 -2.7781,-3.08163 -1.22039,-0.9283 -2.53169,-2.02449 -4.15229,-1.95702 -0.83696,2.9e-4 -1.6739,-0.002 -2.51085,-0.005 -1.1527,-0.002 -2.3054,-0.009 -3.45809,-0.003 -1.67363,0.0142 -3.3502,0.0356 -5.01636,0.21055 -1.96131,0.22486 -3.92279,0.53242 -5.83369,1.03179 -0.28794,0.11174 -0.55498,0.33266 -0.86384,0.33521 -0.19795,0.002 0.65204,-0.44905 0.49229,-0.33214 -0.97882,0.71636 -1.82724,1.42489 -2.22424,2.63136 -1.01057,2.80682 -1.25977,5.75584 -1.18403,8.72925 -0.0226,3.2823 -0.12766,6.58106 0.20705,9.85108 0.19514,1.1363 0.22031,1.53048 0.58679,2.6404 0.87551,2.65162 2.43037,5.01258 3.92142,7.34593 4.18324,6.23289 8.8549,12.16711 14.43401,17.22195 1.80329,1.45965 2.82361,2.44763 4.84337,3.51454 2.43133,1.28431 5.12519,1.52279 7.81764,1.22498 1.31705,-0.14216 1.84755,-0.16791 3.11958,-0.42107 0.4507,-0.0897 0.89971,-0.19103 1.34189,-0.31617 0.38494,-0.10894 0.7386,-0.34523 1.13665,-0.38529 0.14988,-0.0151 -0.4786,0.34639 -0.33391,0.3045 0.25359,-0.0734 0.45379,-0.26993 0.68068,-0.4049 0,0 1.39085,-0.56139 1.39085,-0.56139 z"
       inkscape:connector-curvature="0" />
    <path
       style="opacity:1;fill:#28170b"
       id="path3459"
       d="m 314.50044,547.5872 c -0.0487,-1.93954 0.0376,-3.86666 0.22962,-5.79575 0.24309,-1.57831 -10e-4,-1.83131 -1.52612,-2.07794 -1.45302,-0.15003 -2.91681,-0.10921 -4.37511,-0.10142 -1.31135,0.008 -2.62263,0.0241 -3.934,0.0303 -0.67812,0.004 -1.35626,0.005 -2.03439,0.005 -0.75355,-0.31619 -1.48602,-0.72682 -2.22087,-1.10036 -1.09375,-0.42164 -2.11551,-0.8719 -3.01733,-1.63095 -1.11177,-0.97529 -1.7897,-2.3063 -2.31627,-3.66342 -0.74464,-2.05116 -1.1162,-4.20092 -1.37593,-6.35895 -0.24309,-1.28022 -0.451,-2.56571 -0.70154,-3.84444 -0.24258,-1.27282 -0.28145,-2.56689 -0.55557,-3.83296 -0.18089,-0.86071 -0.30092,-1.73121 -0.36893,-2.60759 -0.043,-0.67219 -0.0334,-1.34602 -0.0332,-2.01913 10e-4,-0.89646 0.005,-1.79292 0.004,-2.68938 9.2e-4,-1.04435 0.003,-2.08869 0.003,-3.13304 -0.001,-0.96039 -0.002,-1.92078 -0.003,-2.88117 -0.002,-0.708 -0.001,-1.41599 2.9e-4,-2.12399 0.0308,-0.95038 -0.0634,-1.90822 0.0559,-2.85293 0.60637,-1.73887 2.90124,-1.86697 4.44606,-1.98562 1.18531,-0.0799 2.37375,-0.0823 3.56114,-0.0772 0.64283,0.006 1.28566,0.0102 1.9285,0.0135 1.05,0.38225 1.38255,1.59528 1.7626,2.54307 0.61126,1.47731 1.13192,2.98978 1.72049,4.47559 0.36245,0.92684 0.73156,1.8583 0.9269,2.83725 0.0849,0.55591 0.0826,1.11915 0.0821,1.67991 -0.004,0.50772 -0.008,1.01544 -0.009,1.52318 -0.57774,1.24219 -2.32931,1.35293 -3.51275,1.43917 -0.81935,0.0459 -1.64023,0.0362 -2.46042,0.0321 -0.74495,-0.003 -1.48991,-0.005 -2.23488,-0.006 -0.85109,-0.002 -1.70217,-0.004 -2.55327,-0.003 -0.69197,-0.0184 -1.18812,-0.27932 -1.7161,-0.67974 -0.46919,-0.46915 -0.87092,-1.00698 -1.30545,-1.51207 -0.20921,-0.21374 -0.44602,-0.3956 -0.68413,-0.57506 0,0 1.27448,-0.80429 1.27448,-0.80429 l 0,0 c 0.24277,0.18891 0.48432,0.38007 0.69762,0.60298 0.42968,0.49567 0.819,1.0324 1.29242,1.48291 0.50423,0.38154 0.99806,0.59749 1.65319,0.60469 0.85345,1.8e-4 1.70689,-0.002 2.56034,-10e-4 0.74309,0.003 1.48618,0.007 2.22928,0.01 0.818,10e-4 1.63691,0.01 2.45377,-0.042 0.47504,-0.0383 0.95837,-0.0665 1.42185,-0.18713 0.13222,-0.0344 0.49425,-0.2173 0.38841,-0.1309 -1.57448,1.28536 -1.13853,0.80026 -0.8477,0.45368 0.003,-0.50776 0.005,-1.0155 0.01,-1.52324 0.003,-0.5521 0.008,-1.10653 -0.067,-1.65485 -0.18074,-0.97376 -0.54238,-1.90017 -0.89981,-2.82022 -0.58766,-1.48578 -1.10625,-2.99864 -1.72349,-4.47323 -0.35082,-0.87727 -0.66247,-2.0978 -1.67583,-2.38764 -0.64255,-10e-4 -1.28506,-0.009 -1.92759,-0.0146 -1.18072,-0.009 -2.36251,-0.003 -3.54102,0.0784 -0.54015,0.0454 -1.16036,0.0816 -1.69408,0.1892 -0.19971,0.0403 -0.70017,0.33935 -0.58712,0.16986 0.18293,-0.27424 0.53788,-0.38542 0.83122,-0.53583 0.11881,-0.0609 -0.22205,0.15652 -0.30118,0.26407 -0.0757,0.1029 -0.1013,0.23456 -0.15195,0.35184 -0.14531,0.93519 -0.0302,1.89052 -0.065,2.83404 0.001,0.7079 0.002,1.41578 3.2e-4,2.12367 -7.5e-4,0.96144 -0.002,1.92289 -0.003,2.88433 5.2e-4,1.04345 0.003,2.08691 0.002,3.13037 -0.002,0.89636 -0.002,1.79272 -0.003,2.68909 -4.5e-4,0.66936 -0.004,1.33931 0.0306,2.008 0.06,0.87112 0.17379,1.73684 0.35362,2.59189 0.27441,1.26811 0.31256,2.56269 0.55215,3.83806 0.25239,1.28276 0.46536,2.57142 0.70221,3.85722 0.24214,2.14866 0.60569,4.28954 1.35379,6.32778 0.52104,1.33232 1.19287,2.63854 2.28997,3.59181 0.89816,0.74352 1.92456,1.16914 2.99894,1.60215 0.71698,0.3591 1.43132,0.79439 2.18845,1.03745 0.6762,-2.8e-4 1.35241,4.3e-4 2.02861,-0.002 1.30808,-0.005 2.61614,-0.0132 3.92419,-0.0237 1.46523,-0.0122 2.93726,-0.0498 4.39567,0.11951 1.55879,0.28916 1.90375,0.66055 1.63534,2.27291 -0.19959,1.92274 -0.30497,3.84349 -0.22782,5.77791 0,0 -1.33431,0.67987 -1.33431,0.67987 z"
       inkscape:connector-curvature="0" />
    <path
       style="opacity:1;fill:#28170b"
       id="path3463"
       d="m 310.48255,517.42147 c -1.48522,-0.006 -2.97044,-6e-5 -4.45567,-0.002 -1.6623,-0.002 -3.32461,-0.002 -4.98692,-4.5e-4 -1.29424,0.01 -2.58725,-0.0324 -3.87848,0.0637 -1.2629,0.11816 -2.52733,0.21741 -3.79266,0.30518 0,0 1.19625,-0.88183 1.19625,-0.88183 l 0,0 c 1.26566,-0.0876 2.53019,-0.18878 3.79348,-0.30603 1.29437,-0.0865 2.59047,-0.0572 3.88733,-0.0571 1.66272,10e-4 3.32545,0.002 4.98817,-4.5e-4 1.48668,-0.002 2.97336,0.005 4.46003,-0.002 0,0 -1.21153,0.88023 -1.21153,0.88023 z"
       inkscape:connector-curvature="0" />
    <path
       style="opacity:1;fill:#28170b"
       id="path3467"
       d="m 280.74267,511.36113 c -1.50878,0.0575 -2.95268,0.0422 -4.38656,-0.45507 -1.64709,-0.99079 -2.60639,-2.79795 -3.64801,-4.35897 -1.15744,-1.67913 -2.50205,-3.21648 -3.72243,-4.84664 -0.6041,-0.72455 -0.87571,-1.52598 -0.95609,-2.44793 -0.15465,-0.90523 -0.31402,-1.8088 -0.42299,-2.72092 -0.0805,-0.78473 -0.0774,-1.57472 -0.0832,-2.36262 -0.002,-0.51142 -0.005,-1.02288 -9.7e-4,-1.53429 0.008,-1.31578 0.01,-2.63159 0.0101,-3.94739 0.003,-1.3354 -0.003,-2.67078 -0.005,-4.00617 0.0682,-0.99847 -0.0874,-1.97431 -0.22161,-2.9592 -0.20203,-1.68772 -0.22838,-3.38961 -0.25965,-5.0871 -0.0182,-1.43654 -0.0249,-2.87323 -0.0261,-4.30988 0.002,-1.16217 0.003,-2.32434 0.004,-3.48651 4.1e-4,-1.04275 -2e-5,-2.08549 -0.003,-3.12822 0.0287,-0.5527 -0.0997,-1.12931 0.12548,-1.64973 0.46401,-0.78138 3.91216,-2.41566 1.3594,-1.00794 1.15747,-0.68151 -0.0911,0.0506 2.22913,-1.27905 0.26314,-0.15081 -1.05556,0.59792 -0.7919,0.44804 0.91276,-0.51884 1.7701,-1.01244 2.6987,-1.47023 1.18175,-0.57753 2.47087,-0.84114 3.68987,-1.31651 0.21101,-0.10378 0.4198,-0.2122 0.63303,-0.31133 0.96707,-0.44958 0.37097,-0.12004 1.27137,-0.61469 0.20776,-0.11414 0.85454,-0.37607 0.61892,-0.35017 -0.24844,0.0273 -0.41077,0.36257 -0.66058,0.35474 -0.23202,-0.007 0.39873,-0.2378 0.5981,-0.3567 0.77952,-0.53158 1.57486,-1.03779 2.33278,-1.60024 1.32441,-0.9821 2.69548,-1.27911 4.26786,-1.58428 2.42663,-0.57176 4.8733,-1.00843 7.34854,-1.30263 1.32766,-0.15713 2.66128,-0.25113 3.99778,-0.27254 1.95432,-0.0466 3.35074,1.70837 4.57603,3.0068 1.67754,1.78324 3.37054,3.5518 5.08114,5.30333 1.22906,1.30739 2.54198,2.52796 3.83081,3.77384 1.1085,1.06185 2.17175,2.17454 2.9421,3.50938 0.43423,0.88526 0.84265,1.77389 1.37306,2.60667 0.65725,0.85447 1.1673,1.7979 1.65047,2.75739 0.72189,1.54305 1.49794,3.05654 2.56148,4.39318 0.78695,1.07777 1.75931,1.98851 2.73777,2.88799 0.95706,0.85296 2.00254,1.64663 2.86533,2.60103 0.4189,0.46339 1.04321,1.3361 1.41026,1.83349 0.84056,1.2616 1.56458,2.65052 2.91762,3.42251 0.79703,0.30263 1.69382,0.3988 2.5333,0.24801 0.1545,-0.0298 0.31188,-0.0473 0.46351,-0.0893 0.0465,-0.0129 0.83397,-0.30762 0.87574,-0.3275 0.13216,-0.0629 0.51095,-0.28506 0.37894,-0.22184 -0.30845,0.14775 -0.57238,0.41569 -0.90908,0.47576 -0.16307,0.0291 0.21945,-0.2482 0.32917,-0.37229 0.79433,-1.05927 1.13589,-2.36998 1.58832,-3.59795 0.51061,-1.23403 1.09188,-2.45277 1.91422,-3.51052 0.71701,-0.8933 1.48881,-1.73522 2.07196,-2.72512 0.86917,-1.50237 1.29733,-3.14831 1.56773,-4.84664 0.18491,-1.36161 0.24576,-2.73562 0.26481,-4.10831 -0.0107,-0.71603 0.037,-1.43447 -0.0622,-2.1448 -0.34319,-1.08576 -1.45416,-1.56968 -2.37845,-2.09236 -1.34999,-0.66252 -2.7826,-1.16773 -4.24571,-1.5153 -1.23832,-0.16623 -1.7191,-0.31403 -2.595,-1.21468 -0.87218,-0.91654 -1.65561,-1.90917 -2.24227,-3.03181 -0.47777,-1.001 -0.56176,-2.08409 -0.60558,-3.17333 -0.0792,-1.42798 -0.051,-2.81074 0.41239,-4.17151 0.67494,-1.36763 2.11537,-2.32051 3.60586,-2.61801 2.04316,-0.16848 4.09647,-0.0572 6.14331,-0.16035 2.32408,-0.0772 4.5985,-0.60019 6.83661,-1.19472 0.67487,-0.19234 1.36619,-0.30687 2.01132,-0.59105 0.1239,-0.0546 0.48022,-0.25006 0.36246,-0.18328 -1.17907,0.66869 -1.3748,0.90126 -1.00973,0.50523 1.27985,-0.31263 1.37468,-0.78403 1.2564,0.0179 -0.0466,0.31609 -0.0675,0.63197 -0.0849,0.9507 -0.0248,0.63719 -0.0219,1.27505 -0.0196,1.9126 0.003,0.74051 7.8e-4,1.48102 8.6e-4,2.22153 -0.0511,0.25673 0.0435,0.52473 0.002,0.78216 -0.14946,0.93124 -1.63593,1.35822 -2.45277,1.50317 -0.8456,0.11085 -1.69858,0.11272 -2.54958,0.10796 -1.00893,-0.01 -2.01789,-0.0136 -3.02685,-0.0163 -0.97125,-0.0867 -1.87139,-0.46347 -2.79821,-0.73805 -0.41349,-0.13417 -0.82755,-0.23926 -1.26077,-0.27284 0.38598,-0.15158 0.74385,-0.43266 1.15794,-0.45473 0.13669,-0.007 -0.074,0.26392 -0.0999,0.39834 -0.0266,0.13799 -0.0428,0.27789 -0.0575,0.41766 -0.045,0.42888 -0.0469,0.86062 -0.0513,1.29125 0.0392,0.49087 -0.0586,1.00942 0.0731,1.48761 0.48915,0.50026 1.6962,0.53788 2.3693,0.65345 1.638,0.39478 3.26502,0.80966 4.92924,1.08051 1.68539,0.15397 3.32142,0.29673 4.81875,1.13454 1.17257,0.74888 2.00421,1.8184 2.5985,3.05712 0.36906,1.00994 0.3892,2.09191 0.40839,3.15398 0.008,0.88059 -0.005,1.76116 -0.0106,2.64172 -0.006,0.87925 -0.008,1.75852 -0.008,2.63779 -0.002,1.02071 -0.003,2.04143 5.3e-4,3.06215 0.0853,0.76297 -0.16951,1.37484 -0.57419,2.00586 -0.63868,0.98998 -1.24143,2.00725 -1.74927,3.07082 -0.31998,0.80238 -0.76792,1.54376 -1.18526,2.29715 -0.55423,1.23876 -1.2924,2.36456 -2.07266,3.4691 -1.21976,1.62503 -2.5568,3.16086 -3.90738,4.6777 -1.246,1.56894 -2.892,2.41281 -4.61726,3.36552 -1.23034,0.62574 -2.38867,1.38366 -3.65402,1.939 -0.78007,0.29882 -1.52402,0.69348 -2.3325,0.91434 -0.60077,0.15254 -1.22584,0.1299 -1.84042,0.13149 -0.88448,-0.0645 -1.80378,0.11605 -2.67397,-0.0758 -0.54642,-0.16131 -1.11868,-0.46544 -1.54717,-0.8491 -0.50155,-0.32868 -0.89041,-0.77804 -1.32722,-1.18299 -0.565,-0.43281 -1.08668,-0.90439 -1.58518,-1.41408 -1.02548,-0.95677 -1.87727,-2.06364 -2.77174,-3.13723 -0.83931,-1.05639 -1.81973,-1.99281 -2.6138,-3.08366 -0.81841,-1.40861 -1.78557,-2.72051 -2.66491,-4.09042 -0.81469,-0.99598 -1.55808,-2.04439 -2.4521,-2.97318 -0.45503,-0.45473 -0.85551,-0.92911 -1.3615,-1.32792 -0.98779,-0.84431 -1.90342,-1.77027 -2.83033,-2.68011 -0.96223,-0.8582 -1.79049,-1.83279 -2.6118,-2.82143 -0.66303,-0.78683 -1.29328,-1.60049 -1.89358,-2.43662 -1.0831,-1.37557 -1.85192,-2.96043 -2.83121,-4.40517 -0.73829,-1.08968 -1.21693,-2.33032 -1.76778,-3.52023 -0.32366,-0.63557 -0.58297,-1.44766 -1.26363,-1.79176 -0.50711,-0.13391 -1.03709,-0.10525 -1.55654,-0.10004 -0.72361,0.0173 -1.44741,0.0163 -2.17118,0.0178 -1.33656,-2e-4 -2.67313,10e-4 -4.00969,0.003 -1.09696,0.0113 -2.18809,-0.0649 -3.27026,0.12882 -1.11997,0.34743 -0.4237,0.0915 -1.5526,0.61574 -0.14173,0.0658 0.52724,-0.32099 0.42084,-0.20654 -0.22108,0.2378 -0.52067,0.38819 -0.77609,0.58866 -0.80454,0.63146 -0.70126,0.56227 -1.43002,1.23491 -0.96296,0.89716 -1.47788,1.9061 -1.67977,3.18611 -0.16344,1.06505 -0.37898,2.08061 -0.84751,3.0528 -0.30469,0.53654 -0.56872,1.07292 -0.66762,1.68433 -0.0234,1.04062 -0.14848,2.06679 -0.28724,3.09781 -0.12308,0.95186 -0.2103,1.90846 -0.25195,2.86734 -0.0235,0.7182 -0.0201,1.43689 -0.0194,2.15536 0.0561,0.62116 -0.0401,1.19907 -0.21571,1.79147 -0.37905,0.86563 -0.57118,1.77857 -0.68269,2.71175 -0.1769,1.42325 -0.54426,2.80473 -0.97094,4.17004 -0.34242,0.94286 -0.66322,1.89868 -1.03274,2.83181 -0.26991,0.65468 -0.55,1.30603 -0.79832,1.96961 -0.11697,0.60174 -0.45768,1.11544 -0.67928,1.67714 -0.15914,0.37735 -0.17196,0.72194 0.0994,1.04346 0.3884,0.28294 0.82286,0.53271 1.28132,0.69284 0.55909,0.18247 1.09359,0.45055 1.61178,0.72937 0.46406,0.30618 0.9865,0.39466 1.5275,0.44615 0.26276,0.0184 0.52608,0.0238 0.78935,0.0287 0,0 -1.22205,0.88336 -1.22205,0.88336 l 0,0 c -0.26524,-0.008 -0.53061,-0.016 -0.79507,-0.0395 -0.55456,-0.0638 -1.08364,-0.18468 -1.55891,-0.49506 -0.51537,-0.27359 -1.04703,-0.52949 -1.6018,-0.71137 -0.4717,-0.18414 -0.93867,-0.43567 -1.32598,-0.75989 -0.28555,-0.36306 -0.35229,-0.7496 -0.17337,-1.18284 0.21068,-0.56858 0.57381,-1.07168 0.68478,-1.67672 0.23472,-0.67083 0.53164,-1.31756 0.79739,-1.97581 0.38798,-0.92379 0.68173,-1.89135 1.04621,-2.82438 0.42793,-1.35645 0.80552,-2.72615 0.97945,-4.14238 0.10069,-0.93819 0.27389,-1.86543 0.66279,-2.7325 0.18109,-0.58158 0.29981,-1.13719 0.2362,-1.75188 -9e-4,-0.72061 -4.7e-4,-1.44137 0.0179,-2.16179 0.0382,-0.96451 0.13464,-1.92582 0.25346,-2.88353 0.13833,-1.0299 0.27669,-2.05332 0.27656,-3.09427 0.0813,-0.63121 0.32327,-1.18508 0.6533,-1.72914 0.47564,-0.96118 0.71524,-1.94966 0.8692,-3.01254 0.18842,-1.31145 0.66744,-2.35388 1.64925,-3.28215 1.69337,-1.5919 3.62281,-3.08858 5.90421,-3.69246 1.09104,-0.16516 2.18767,-0.10898 3.28944,-0.11264 1.33664,0.001 2.67328,0.003 4.00991,-0.004 0.72567,-0.004 1.45127,-0.0109 2.17684,-0.0229 0.53768,-0.004 1.09203,-0.0306 1.60354,0.16325 0.67716,0.41776 0.97469,1.18822 1.29936,1.87948 0.54812,1.18264 1.02664,2.41361 1.75436,3.50061 0.96935,1.44908 1.73933,3.03209 2.83053,4.3997 0.60476,0.82859 1.2358,1.63723 1.88892,2.4277 0.81872,0.98317 1.64877,1.94957 2.59847,2.81184 0.92518,0.90635 1.84126,1.82763 2.83795,2.65617 0.51139,0.40169 0.90448,0.89428 1.36535,1.35059 0.89256,0.94202 1.64556,1.99442 2.46031,3.00185 0.87433,1.36945 1.83822,2.67984 2.66412,4.08009 0.79712,1.08338 1.7661,2.02621 2.60237,3.07968 0.89122,1.07276 1.7512,2.16809 2.77845,3.11859 0.49957,0.50466 1.02394,0.97013 1.58164,1.40795 0.43666,0.40293 0.83181,0.84406 1.32869,1.17629 0.42792,0.35671 0.96131,0.65365 1.50129,0.78473 0.87274,0.14032 1.77266,0.01 2.65278,0.0548 0.60973,-0.007 1.22877,0.004 1.8201,-0.16837 0.79395,-0.24796 1.54057,-0.61731 2.31207,-0.92436 1.2544,-0.57322 2.41591,-1.32171 3.64655,-1.94249 -0.21251,0.13602 -0.48927,0.20389 -0.63752,0.40806 -0.13147,0.18105 0.39442,-0.21231 0.58291,-0.33286 0.8173,-0.52272 1.48127,-1.22531 2.1369,-1.93161 1.35982,-1.50459 2.68591,-3.04739 3.91417,-4.66181 0.77549,-1.09778 1.53118,-2.20561 2.06495,-3.44646 0.4045,-0.76072 0.88465,-1.48635 1.19741,-2.29331 0.49844,-1.07072 1.103,-2.0895 1.73194,-3.08823 0.42268,-0.59445 0.69178,-1.18246 0.61238,-1.92524 0.003,-1.02102 0.003,-2.04204 10e-4,-3.06306 7.3e-4,-0.87925 9.3e-4,-1.75849 0.006,-2.63773 0.008,-0.88014 0.019,-1.76033 0.0162,-2.64051 -0.0157,-1.04155 -0.0267,-2.10388 -0.37803,-3.09765 -0.57234,-1.21614 -1.38958,-2.25887 -2.54271,-2.98185 -1.49354,-0.80548 -3.12284,-0.92345 -4.7875,-1.09482 -1.66416,-0.27888 -3.29249,-0.69801 -4.93557,-1.07723 -0.80389,-0.13807 -1.91199,-0.11816 -2.46988,-0.78748 -0.15341,-0.48956 -0.0566,-1.02253 -0.0887,-1.53006 0.003,-0.31996 -0.0115,-1.98297 0.17772,-2.16572 0.42694,-0.41231 0.96173,-0.69583 1.44259,-1.04374 0.43565,0.0486 0.85263,0.17032 1.26996,0.30258 0.91403,0.27727 1.80828,0.64698 2.77262,0.70324 1.0095,0.004 2.01899,0.0108 3.02849,0.0152 0.84453,0.002 1.69258,-7.5e-4 2.52938,-0.13096 0.15225,-0.0346 0.56189,-0.21924 0.45674,-0.10382 -0.24631,0.27034 -0.60714,0.40802 -0.9145,0.60624 -0.0826,0.0533 0.17428,-0.0982 0.23998,-0.17123 0.25676,-0.2856 0.0987,-0.69017 0.13662,-1.02999 -8.6e-4,-0.73954 -0.004,-1.47906 -0.006,-2.2186 -3.6e-4,-0.64007 -0.006,-1.28046 0.0174,-1.92022 0.068,-1.5116 -0.0962,-1.25792 1.55678,-2.24878 -0.52201,1.0017 -2.88204,1.49098 -3.92551,1.77514 -2.24429,0.58411 -4.52259,1.09515 -6.85019,1.16618 -2.04781,0.0926 -4.10656,-0.0261 -6.14636,0.19503 -0.8451,0.21393 -0.49176,0.17541 0.44208,-0.45737 0.12589,-0.0853 -0.2677,0.14532 -0.39366,0.2305 -0.4969,0.33602 -0.85991,0.75394 -1.10885,1.30438 -0.48685,1.34079 -0.51732,2.7036 -0.43441,4.11951 0.0408,1.0668 0.11324,2.13174 0.57452,3.11515 0.57677,1.11145 1.35451,2.09098 2.22054,2.9931 0.85431,0.86027 1.36203,0.96458 2.54691,1.14679 1.46923,0.36437 2.91103,0.87509 4.26572,1.55154 0.97159,0.54925 2.09515,1.06469 2.45694,2.20366 0.11401,0.71636 0.0672,1.44283 0.0732,2.1668 -0.0227,1.38138 -0.0932,2.76377 -0.27097,4.13467 -0.26167,1.71043 -0.67541,3.37046 -1.53431,4.89098 -0.56064,1.00989 -1.33857,1.85207 -2.06262,2.74623 -0.8455,1.03055 -1.41555,2.24866 -1.93764,3.4684 -0.45399,1.23723 -0.79718,2.55331 -1.56091,3.64099 -0.85671,1.11056 -2.35971,1.7491 -3.71942,2.02279 -0.87115,0.1052 -1.78079,0.022 -2.58974,-0.33321 -1.34546,-0.8169 -2.08587,-2.19956 -2.92999,-3.48522 -1.26705,-1.71094 -2.58449,-3.09409 -4.27011,-4.4044 -0.98834,-0.90121 -1.96782,-1.81623 -2.75171,-2.90743 -1.06157,-1.34998 -1.84661,-2.86873 -2.57924,-4.41742 -0.4855,-0.95279 -0.99633,-1.89015 -1.64928,-2.74142 -0.52856,-0.83642 -0.9467,-1.72258 -1.37205,-2.61479 -0.75888,-1.32494 -1.81609,-2.42533 -2.91323,-3.47771 -1.29274,-1.24403 -2.59986,-2.47216 -3.83155,-3.77889 -1.70422,-1.75704 -3.38757,-3.534 -5.06872,-5.3131 -1.22496,-1.28355 -2.59088,-2.96981 -4.53389,-2.887 -1.32689,0.0252 -2.65125,0.11652 -3.96967,0.27056 -2.47618,0.29693 -4.92148,0.74668 -7.34932,1.31769 -0.69644,0.1428 -1.39493,0.28478 -2.07557,0.49384 -0.48718,0.14964 -0.75947,0.31988 -0.64707,0.24738 0.33729,-0.21754 0.6922,-0.40647 1.0383,-0.60971 -0.76007,0.56936 -1.5598,1.07697 -2.33872,1.61953 -1.64546,0.97028 -3.25741,2.00254 -5.02798,2.73517 -1.22448,0.45838 -2.51027,0.74068 -3.68547,1.33121 -0.30701,0.1531 -1.19897,0.66234 -0.9176,0.46607 0.25014,-0.17448 1.05041,-0.62027 0.78542,-0.46928 -3.28969,1.87441 -1.7891,1.06457 -0.96806,0.55696 0.15218,-0.0941 -0.31085,0.1772 -0.46627,0.26579 -0.53845,0.32013 -1.0761,0.6416 -1.61534,0.96039 -0.31674,0.18726 0.62931,-0.38159 0.94784,-0.56577 0.20894,-0.12081 -0.82642,0.49447 -0.71585,0.53872 -0.28668,0.47815 -0.12567,1.05392 -0.16211,1.58862 -0.003,1.04391 -0.004,2.08783 -0.004,3.13174 -1.6e-4,1.16172 -5.4e-4,2.32345 -10e-4,3.48517 -0.003,1.4377 -0.007,2.87547 0.0138,4.31308 0.0284,1.6909 0.0569,3.3862 0.25968,5.06711 0.13724,0.99026 0.3098,1.96997 0.23587,2.97484 -0.003,1.33728 -0.008,2.67456 -0.006,4.01185 -2e-5,1.31294 0.002,2.62588 0.007,3.9388 10e-4,0.51186 -0.007,1.02372 -0.004,1.53559 0.003,0.78286 0.003,1.56751 0.0763,2.34764 0.10233,0.91473 0.25715,1.82096 0.4237,2.72601 0.0707,0.89653 0.32187,1.67182 0.90678,2.37997 1.21309,1.63804 2.55343,3.18156 3.71394,4.86041 1.02515,1.53125 1.97326,3.32084 3.6088,4.26869 1.42703,0.47041 2.87134,0.4665 4.36467,0.41083 0,0 -1.21312,0.88138 -1.21312,0.88138 z"
       inkscape:connector-curvature="0" />
    <path
       style="opacity:1;fill:#28170b"
       id="path3471"
       d="m 280.73729,500.6865 c -1.17033,-0.31672 -2.39899,-0.4555 -3.53927,-0.87468 -0.53392,-0.1936 -0.8932,-0.57418 -1.04819,-1.11126 -0.0268,-0.0472 -0.0536,-0.0945 -0.0804,-0.14174 0,0 1.30779,-0.75348 1.30779,-0.75348 l 0,0 c 0.0328,0.0581 0.0656,0.11626 0.0983,0.17439 0.12962,0.50104 0.47483,0.82081 0.96666,0.99171 1.13999,0.39394 2.34779,0.57194 3.51897,0.8489 0,0 -1.22389,0.86616 -1.22389,0.86616 z"
       inkscape:connector-curvature="0" />
    <path
       style="opacity:1;fill:#28170b"
       id="path3473"
       d="m 281.3688,443.57837 c 1.51873,1.04101 2.88235,2.28299 4.17702,3.58676 0.8027,0.85257 1.45788,1.78322 1.96292,2.83681 0.35594,1.0159 0.7957,2.00191 1.11786,3.02896 0.26156,0.75953 0.13378,0.37824 0.38332,1.14387 0,0 -1.31057,0.72057 -1.31057,0.72057 l 0,0 c -0.24847,-0.76463 -0.12017,-0.38297 -0.38495,-1.14495 -0.31809,-1.02096 -0.75935,-1.99862 -1.10975,-3.00896 -0.49524,-1.0387 -1.14037,-1.95698 -1.92762,-2.79955 -1.28383,-1.29776 -2.63706,-2.53881 -4.16535,-3.54633 0,0 1.25712,-0.81718 1.25712,-0.81718 z"
       inkscape:connector-curvature="0" />
    <path
       style="opacity:1;fill:#28170b"
       id="path3477"
       d="m 291.70414,460.09714 c 0.98243,3.58002 2.39579,7.01775 3.62896,10.5139 0.89054,2.37642 1.6828,4.79062 2.38107,7.23055 0.32822,1.24827 0.41544,2.53552 0.45131,3.81984 0.015,1.16889 0.004,2.33799 -0.002,3.50692 -0.0801,1.429 0.13171,2.84263 0.2926,4.25776 0.0141,0.55811 0.15375,1.09582 0.28544,1.63399 0,0 -1.31896,0.71242 -1.31896,0.71242 l 0,0 c -0.13329,-0.54458 -0.27805,-1.08845 -0.28939,-1.65357 -0.15808,-1.42041 -0.37777,-2.83851 -0.3019,-4.27248 0.004,-1.16725 0.0161,-2.33457 0.002,-3.50179 -0.0306,-1.27374 -0.10764,-2.55123 -0.42624,-3.79099 -0.68099,-2.44411 -1.46226,-4.86167 -2.34275,-7.24105 -1.22698,-3.5021 -2.63132,-6.94318 -3.6787,-10.50682 0,0 1.31875,-0.70868 1.31875,-0.70868 z"
       inkscape:connector-curvature="0" />
    <path
       style="opacity:1;fill:#28170b"
       id="path3479"
       d="m 312.07202,516.45275 c 1.89108,1.96596 3.84801,3.86809 5.78843,5.78524 1.43937,1.39091 2.87619,2.79174 4.37877,4.11488 0.591,0.7141 1.3733,1.14244 2.14789,1.61021 0.94059,0.54244 1.99719,0.78894 3.05721,0.96814 1.26147,0.18381 2.537,0.22094 3.80961,0.23985 1.0416,0.009 2.08325,0.003 3.12487,5.6e-4 0.98473,-0.0423 1.98285,0.0815 2.95859,-0.0728 0.11674,-0.053 0.46302,-0.22006 0.35022,-0.15908 -1.81143,0.9792 -0.56816,0.44902 -0.55753,-0.83343 -0.0523,-0.75769 -0.78268,-0.93595 -1.39274,-1.16768 -1.03575,-0.23023 -1.8798,-0.88751 -2.82537,-1.33281 -1.17384,-0.55141 -2.24871,-1.27799 -3.379,-1.91087 -1.14752,-0.6793 -2.34446,-1.27041 -3.53625,-1.86831 -1.35017,-0.59554 -2.66661,-1.26396 -4.00532,-1.88475 -1.38014,-0.60297 -2.68034,-1.30077 -3.92348,-2.14789 -1.21049,-0.91612 -2.15398,-2.11209 -3.19098,-3.20685 -0.6705,-0.69671 -1.27675,-1.43176 -1.81178,-2.23695 -0.31292,-0.37938 -0.16135,-0.18497 -0.45453,-0.58337 0,0 1.29339,-0.76609 1.29339,-0.76609 l 0,0 c 0.29213,0.3958 0.13985,0.19892 0.45748,0.59012 0.52991,0.79774 1.12936,1.52708 1.79115,2.21972 1.02406,1.09223 1.96407,2.27829 3.1722,3.18017 1.23842,0.83876 2.53756,1.52512 3.90695,2.12999 1.3395,0.62531 2.66463,1.28126 4.01454,1.88392 1.19289,0.59813 2.38584,1.19986 3.53619,1.87637 1.1291,0.63052 2.20258,1.35625 3.37815,1.89979 0.93882,0.45259 1.79099,1.0866 2.82285,1.32091 0.66898,0.26362 1.41293,0.49749 1.48637,1.32002 0.0412,1.42949 -0.93308,2.17462 -2.33447,2.57554 -0.98411,0.11383 -1.97995,0.0243 -2.96894,0.0556 -1.04165,0.003 -2.08336,0.008 -3.12497,-0.004 -1.27638,-0.0233 -2.55558,-0.0677 -3.81957,-0.2612 -1.07428,-0.19065 -2.14635,-0.44805 -3.09547,-1.00876 -0.78584,-0.46624 -1.55797,-0.92478 -2.1579,-1.63709 -1.49017,-1.33702 -2.92062,-2.74288 -4.35562,-4.13839 -1.94463,-1.92378 -3.90818,-3.82888 -5.82685,-5.77863 0,0 1.28591,-0.77205 1.28591,-0.77205 z"
       inkscape:connector-curvature="0" />
    <path
       style="opacity:1;fill:#28170b"
       id="path3483"
       d="m 304.62393,493.20069 c -0.90714,-1.40192 -1.76835,-2.83265 -2.66945,-4.23777 -0.66282,-1.08042 -1.04487,-2.31067 -1.47798,-3.49671 -0.75458,-1.71354 -1.25964,-3.5153 -1.80293,-5.30236 -0.61704,-2.47738 -1.01317,-5.00272 -1.46976,-7.51362 -0.29447,-1.29381 -0.11587,-2.61138 -0.0149,-3.91537 0.16373,-1.18876 -0.0344,-2.36786 -0.16708,-3.54796 -0.10381,-1.01184 -0.4546,-1.95674 -0.76445,-2.91611 0,0 1.31287,-0.72121 1.31287,-0.72121 l 0,0 c 0.30998,0.96953 0.66378,1.9235 0.77626,2.94366 0.13235,1.18847 0.34437,2.37554 0.18011,3.57294 -0.0993,1.29342 -0.29158,2.60164 -0.0121,3.88672 0.44151,2.50877 0.82887,5.03212 1.45156,7.50339 0.54645,1.78247 1.0623,3.57614 1.81771,5.28517 0.42847,1.17644 0.8083,2.39503 1.46016,3.46941 0.89223,1.40782 1.74603,2.83994 2.67026,4.22816 0,0 -1.29028,0.76166 -1.29028,0.76166 z"
       inkscape:connector-curvature="0" />
    <path
       style="opacity:1;fill:#28170b"
       id="path3485"
       d="m 293.90199,453.24456 c -1.22031,-1.39967 -2.43594,-2.79718 -3.49588,-4.32334 -0.57503,-0.87987 -1.10296,-1.78265 -1.61507,-2.6998 -0.35006,-0.72484 -0.72425,-1.45114 -1.17208,-2.12133 -0.43249,-0.79169 -1.13981,-1.32253 -1.89631,-1.77949 -0.90782,-0.49309 -1.86684,-0.59424 -2.87408,-0.48618 -0.18565,0.0576 -0.67938,0.20356 -0.85879,0.28814 -0.1246,0.0587 -0.47456,0.27988 -0.35406,0.21312 0.31476,-0.17439 1.25325,-0.70782 0.93701,-0.53611 -0.55289,0.30022 -1.09806,0.61445 -1.64709,0.92167 0,0 1.17249,-0.93891 1.17249,-0.93891 l 0,0 c -2.59224,1.55703 1.10461,-0.8481 1.95445,-0.84044 1.02917,-0.0878 2.01369,0.0537 2.92947,0.56543 0.76885,0.47659 1.48975,1.02354 1.93242,1.83373 0.44798,0.67494 0.83011,1.40111 1.17828,2.13151 0.50773,0.91388 1.02899,1.81495 1.59831,2.69266 1.0527,1.52425 2.25506,2.92763 3.49022,4.30706 0,0 -1.27929,0.77228 -1.27929,0.77228 z"
       inkscape:connector-curvature="0" />
    <path
       style="opacity:1;fill:#28170b"
       id="path3489"
       d="m 312.87225,511.80379 c -0.40613,-1.35928 -0.96214,-2.66402 -1.6848,-3.88405 -0.26053,-0.51163 -0.60933,-0.96792 -0.92875,-1.44259 0,0 1.29241,-0.75784 1.29241,-0.75784 l 0,0 c 0.31967,0.47776 0.66741,0.93825 0.92915,1.45216 0.72913,1.23305 1.28261,2.55235 1.71056,3.91927 0,0 -1.31857,0.71305 -1.31857,0.71305 z"
       inkscape:connector-curvature="0" />
    <path
       style="opacity:1;fill:#ac9d93"
       d="m 305.21841,545.67625 c -5.60379,-2.77375 -17.79595,-16.81537 -22.20042,-25.56805 -1.44475,-2.87106 -2.2999,-7.99653 -1.49581,-8.9654 0.44764,-0.53936 0.44067,-0.70633 -0.0295,-0.70633 -0.45837,0 -0.54986,-1.19366 -0.3581,-4.67196 0.50438,-9.14874 1.17888,-10.77043 4.93909,-11.87495 2.52569,-0.7419 14.29896,-1.4423 16.20455,-0.96403 0.69101,0.17343 2.31179,1.24435 3.60174,2.37981 3.23463,2.84724 4.67648,7.45721 4.851,15.50993 l 0.12314,5.68211 -8.31489,0 c -8.1959,0 -8.31925,-0.0163 -8.61944,-1.13642 -0.1675,-0.62503 -0.30765,-1.57963 -0.31145,-2.12132 -0.005,-0.76603 0.12779,-0.85021 0.5992,-0.37881 0.39572,0.39572 2.47796,0.60609 5.99907,0.60609 4.3397,0 5.52469,-0.1587 6.06735,-0.81257 1.0584,-1.27528 0.62286,-4.62033 -1.20945,-9.28895 l -1.68495,-4.29315 -4.44135,-0.14677 c -7.00398,-0.23146 -6.85199,-0.45255 -6.85199,9.96726 0,6.77597 0.26057,10.07784 1.26462,16.02453 1.60133,9.48416 2.5579,11.50796 6.33932,13.41197 2.45462,1.23594 3.30196,1.38564 7.88584,1.39319 2.82465,0.005 5.49524,0.14642 5.93465,0.31504 0.61323,0.23531 0.79892,1.05707 0.79892,3.53553 l 0,3.22896 -3.40926,-4e-4 c -2.50761,-2.9e-4 -4.01032,-0.29791 -5.68191,-1.12531 z"
       id="path3491"
       inkscape:connector-curvature="0" />
    <path
       style="opacity:1;fill:#ac9d93"
       d="m 276.62137,508.79497 c -0.54656,-0.62503 -2.31624,-2.89964 -3.93262,-5.05469 -2.80351,-3.73778 -2.95744,-4.0984 -3.34174,-7.82868 -0.22156,-2.15073 -0.55133,-10.12707 -0.73281,-17.72521 -0.38168,-15.97974 -0.68384,-14.90541 4.77922,-16.99295 1.87736,-0.71739 4.69612,-2.07675 6.26389,-3.02082 2.90377,-1.74855 7.40169,-2.91674 13.86779,-3.60171 l 3.20663,-0.33968 7.20219,7.26822 c 6.39158,6.45018 7.50568,7.83669 9.89866,12.31899 1.92303,3.60204 3.86309,6.30174 6.76376,9.41214 2.23702,2.39875 4.66616,5.06935 5.3981,5.93464 1.07812,1.27457 1.71247,1.57327 3.34115,1.57327 2.77062,0 4.33037,-1.38536 6.44089,-5.7208 0.97006,-1.99271 2.33309,-4.39611 3.02895,-5.34089 1.62663,-2.20852 2.2504,-4.59096 2.3868,-9.11612 0.1008,-3.34424 0.008,-3.71741 -1.13836,-4.58553 -0.68645,-0.51977 -2.7679,-1.43485 -4.62544,-2.03352 -4.44182,-1.43155 -6.10752,-3.59214 -6.1674,-7.99977 -0.0569,-4.18729 0.42752,-4.59757 5.43971,-4.60721 2.25778,-0.004 5.46875,-0.33717 7.1355,-0.73962 1.66675,-0.40245 3.2128,-0.73983 3.43566,-0.74973 0.22286,-0.01 0.3365,1.17526 0.25254,2.63366 -0.15129,2.62768 -0.16865,2.65317 -1.92043,2.81973 -0.97228,0.0924 -3.07156,-0.10841 -4.66508,-0.44636 -3.68493,-0.78147 -4.54482,-0.23457 -4.32503,2.75078 0.15073,2.04733 0.16132,2.05706 2.92919,2.68704 1.52786,0.34775 4.14163,0.85649 5.80838,1.13053 2.48721,0.40895 3.32471,0.81654 4.67195,2.27371 l 1.6415,1.77545 0,5.77846 0,5.77846 -2.59477,4.80934 c -3.55612,6.59119 -7.18001,10.84368 -10.95573,12.85612 -3.78238,2.01599 -6.92856,2.51276 -9.03036,1.42588 -1.92192,-0.99386 -7.17879,-6.67214 -9.8901,-10.68291 -1.12674,-1.66675 -4.45268,-5.54769 -7.39099,-8.6243 -3.66736,-3.83999 -6.04013,-6.84879 -7.56782,-9.59645 -3.79611,-6.82753 -3.19476,-6.27545 -6.83548,-6.27545 -1.97388,0 -3.3041,-0.2245 -3.42176,-0.5775 -0.14443,-0.43329 -0.46198,-0.43329 -1.27158,0 -0.59349,0.31762 -1.85055,0.5775 -2.79345,0.5775 -3.20304,0 -8.44598,4.48038 -8.45167,7.22242 -0.001,0.49993 -0.32984,1.54315 -0.73066,2.31825 -0.40083,0.77511 -0.95736,4.00263 -1.23674,7.17226 -0.62933,7.14002 -1.17388,9.74182 -3.09153,14.77122 -0.82992,2.17662 -1.50895,4.12708 -1.50895,4.33436 0,0.57495 4.82812,3.57744 5.75266,3.57744 0.69065,0 0.81333,0.72377 0.81333,4.79823 0,4.30879 -0.0941,4.79822 -0.92211,4.79822 -0.50716,0 -1.36929,-0.51139 -1.91584,-1.13642 z"
       id="path3493"
       inkscape:connector-curvature="0" />
    <path
       style="opacity:1;fill:#c8beb7"
       d="m 327.6941,528.66446 c -3.11165,-0.54386 -4.13825,-1.26803 -9.97525,-7.03653 -5.24775,-5.18617 -5.42957,-5.43941 -5.42957,-7.56229 l 0,-2.19643 2.23598,2.61952 c 1.22979,1.44074 2.6669,2.92135 3.19357,3.29024 0.8925,0.62513 14.00382,7.48678 17.68378,9.25459 0.90617,0.43532 1.56985,1.02699 1.47483,1.31484 -0.20316,0.61541 -6.27498,0.82439 -9.18334,0.31606 z"
       id="path3495"
       inkscape:connector-curvature="0" />
    <path
       style="opacity:1;fill:#c8beb7"
       d="m 294.92456,468.89096 c -1.07793,-3.12352 -2.06821,-5.96323 -2.20061,-6.31047 -0.1642,-0.43064 0.32102,-0.63135 1.52633,-0.63135 1.49966,0 1.82405,0.21018 2.14372,1.38896 0.30976,1.14225 0.81932,11.24485 0.56667,11.23497 -0.0419,-0.002 -0.95817,-2.55859 -2.03611,-5.68211 z"
       id="path3497"
       inkscape:connector-curvature="0" />
    <path
       style="opacity:1;fill:#c8beb7"
       d="m 298.78397,491.1173 c -0.0201,-0.34724 -0.17462,-3.01783 -0.34331,-5.93465 l -0.30671,-5.3033 1.272,3.51569 c 0.6996,1.93362 1.84117,4.60421 2.53684,5.93464 l 1.26484,2.41896 -2.19353,0 c -1.39858,0 -2.20679,-0.2288 -2.23013,-0.63134 z"
       id="path3499"
       inkscape:connector-curvature="0" />
    <path
       style="opacity:1;fill:#c8beb7"
       d="m 325.48836,527.75203 c -1.41113,-0.67527 -4.40089,-3.19075 -7.5321,-6.33726 -4.22801,-4.24866 -5.24882,-5.5667 -5.4973,-7.0979 -0.25973,-1.60056 -0.18232,-1.83325 0.5202,-1.56366 0.45394,0.17419 0.82535,0.51903 0.82535,0.7663 0,0.572 3.5241,4.4931 4.03819,4.4931 0.21181,0 1.69514,0.78886 3.2963,1.75303 1.60115,0.96416 3.10604,1.6326 3.34419,1.48542 0.23815,-0.14719 0.43299,-0.0135 0.43299,0.29708 0,0.31059 0.22729,0.42423 0.50508,0.25254 0.27779,-0.17168 0.50508,-0.058 0.50508,0.25254 0,0.31058 0.22728,0.42422 0.50507,0.25254 0.2778,-0.17169 0.50508,-0.058 0.50508,0.25254 0,0.31058 0.22728,0.42422 0.50508,0.25253 0.27779,-0.17168 0.50507,-0.12046 0.50507,0.11384 0,0.60709 2.82376,2.19735 3.21213,1.80898 0.17787,-0.17787 0.32341,-0.0448 0.32341,0.29566 0,0.34048 0.22728,0.47859 0.50507,0.30691 0.27779,-0.17169 0.50508,-0.10598 0.50508,0.14602 0,0.25199 0.90914,0.86814 2.0203,1.3692 1.11117,0.50107 2.02031,1.0871 2.02031,1.30229 0,0.2152 -1.95854,0.46478 -4.35232,0.55464 -3.67033,0.13778 -4.71896,-0.0121 -6.69226,-0.95634 z"
       id="path3501"
       inkscape:connector-curvature="0" />
    <path
       style="opacity:1;fill:#c8beb7"
       d=""
       id="path3503"
       inkscape:connector-curvature="0" />
    <path
       style="opacity:1;fill:#c8beb7"
       id="path3507"
       d="m 279.92919,443.67606 c 0.53762,-0.72833 2.47606,-3.21673 3.47583,-2.72135 0.31738,0.63249 -0.16626,1.37553 -0.48265,1.92636 -0.26999,0.48349 -0.62754,0.90351 -0.91311,1.37752 0,0 -1.37239,0.61048 -1.37239,0.61048 l 0,0 c 0.27335,-0.4864 0.6344,-0.89792 0.91294,-1.37959 0.2813,-0.44948 0.73601,-1.1378 0.60676,-1.68532 -0.5055,-0.0186 -0.29729,0.0106 0.91574,-0.63274 0.14616,-0.0775 -0.27662,0.1835 -0.40052,0.29313 -0.5314,0.47019 -0.94757,1.05515 -1.36216,1.62499 0,0 -1.38044,0.58652 -1.38044,0.58652 z"
       inkscape:connector-curvature="0" />
    <path
       style="opacity:1;fill:#c8beb7"
       d="m 288.51975,451.97389 c -0.7597,-2.34215 -2.12393,-4.31882 -4.45523,-6.4553 -1.54795,-1.41858 -1.6992,-1.75127 -1.11579,-2.45423 1.48294,-1.78683 3.25414,-0.7609 5.60483,3.24645 0.89009,1.51739 2.38306,3.69782 3.31772,4.84541 l 1.69938,2.08652 -1.56296,0.31259 c -2.57638,0.51528 -2.84776,0.39223 -3.48795,-1.58144 z"
       id="path3509"
       inkscape:connector-curvature="0" />
  </g>
</svg>
